# Blender v2.70 (sub 0) OBJ File: 'skybox.blend'
# www.blender.org
o cilindro-2
v 0.072437 0.004219 0.345817
v 0.072437 0.023117 0.345817
v 0.065063 0.004219 0.345091
v 0.065063 0.023117 0.345091
v 0.057973 0.004219 0.342940
v 0.057973 0.023117 0.342940
v 0.051438 0.004219 0.339447
v 0.051438 0.023117 0.339447
v 0.045711 0.004219 0.334747
v 0.045711 0.023117 0.334747
v 0.041011 0.004219 0.329019
v 0.041011 0.023117 0.329019
v 0.037518 0.004219 0.322485
v 0.037518 0.023117 0.322485
v 0.035367 0.004219 0.315395
v 0.035367 0.023117 0.315395
v 0.034641 0.004219 0.308021
v 0.034641 0.023117 0.308021
v 0.035367 0.004219 0.300648
v 0.035367 0.023117 0.300648
v 0.037518 0.004219 0.293557
v 0.037518 0.023117 0.293557
v 0.041011 0.004219 0.287023
v 0.041011 0.023117 0.287023
v 0.045711 0.004219 0.281296
v 0.045711 0.023117 0.281296
v 0.051438 0.004219 0.276595
v 0.051438 0.023117 0.276595
v 0.057973 0.004219 0.273103
v 0.057973 0.023117 0.273103
v 0.065063 0.004219 0.270952
v 0.065063 0.023117 0.270952
v 0.072437 0.004219 0.270226
v 0.072437 0.023117 0.270226
v 0.079810 0.004219 0.270952
v 0.079810 0.023117 0.270952
v 0.086900 0.004219 0.273103
v 0.086900 0.023117 0.273103
v 0.093435 0.004219 0.276595
v 0.093435 0.023117 0.276595
v 0.099162 0.004219 0.281296
v 0.099162 0.023117 0.281296
v 0.103863 0.004219 0.287023
v 0.103863 0.023117 0.287023
v 0.107355 0.004219 0.293557
v 0.107355 0.023117 0.293557
v 0.109506 0.004219 0.300648
v 0.109506 0.023117 0.300648
v 0.110232 0.004219 0.308021
v 0.110232 0.023117 0.308021
v 0.109506 0.004219 0.315395
v 0.109506 0.023117 0.315395
v 0.107355 0.004219 0.322485
v 0.107355 0.023117 0.322485
v 0.103863 0.004219 0.329019
v 0.103863 0.023117 0.329019
v 0.099162 0.004219 0.334747
v 0.099162 0.023117 0.334747
v 0.093435 0.004219 0.339447
v 0.093435 0.023117 0.339447
v 0.086900 0.004219 0.342940
v 0.086900 0.023117 0.342940
v 0.079810 0.004219 0.345091
v 0.079810 0.023117 0.345091
vt 1.000000 0.000000
vt 1.000000 1.000000
vt 0.000000 1.000000
vt 0.000000 0.000000
vt 0.402456 0.990393
vt 0.500000 1.000000
vt 0.308659 0.961940
vt 0.777785 0.915735
vt 0.915735 0.222215
vt 0.402455 0.009607
vt 0.691342 0.961940
vt 0.853553 0.853553
vt 0.961940 0.308658
vt 0.990393 0.597545
vt 1.000000 0.500000
vt 0.915735 0.777785
vt 0.961940 0.691342
vt 0.990393 0.402455
vt 0.222215 0.084265
vt 0.084265 0.222215
vt 0.038060 0.308659
vt 0.853553 0.146447
vt 0.777785 0.084265
vt 0.597545 0.009607
vt 0.500000 0.000000
vt 0.691342 0.038060
vt 0.308658 0.038060
vt 0.146446 0.146447
vt 0.038060 0.691342
vt 0.009607 0.402455
vt 0.222215 0.915735
vt 0.146447 0.853554
vt 0.084266 0.777786
vt 0.597545 0.990393
vt 0.000000 0.500000
vt 0.009607 0.597546
vn -0.098028 0.000000 0.995184
vn -0.290281 0.000000 0.956941
vn -0.471399 0.000000 0.881920
vn -0.634392 0.000000 0.773011
vn -0.773009 0.000000 0.634395
vn -0.881922 0.000000 0.471395
vn -0.956940 0.000000 0.290285
vn -0.995185 0.000000 0.098018
vn -0.995185 0.000000 -0.098017
vn -0.956941 0.000000 -0.290283
vn -0.881919 0.000000 -0.471401
vn -0.773015 0.000000 -0.634388
vn -0.634396 0.000000 -0.773008
vn -0.471388 0.000000 -0.881926
vn -0.290293 0.000000 -0.956938
vn -0.098015 0.000000 -0.995185
vn 0.098022 0.000000 -0.995184
vn 0.290287 0.000000 -0.956940
vn 0.471398 0.000000 -0.881920
vn 0.634401 0.000000 -0.773004
vn 0.773009 0.000000 -0.634395
vn 0.881922 0.000000 -0.471395
vn 0.956941 0.000000 -0.290284
vn 0.995185 0.000000 -0.098017
vn 0.995185 0.000000 0.098019
vn 0.956940 0.000000 0.290287
vn 0.881921 0.000000 0.471396
vn 0.773012 0.000000 0.634392
vn 0.634392 0.000000 0.773011
vn 0.471398 0.000000 0.881921
vn 0.000000 1.000000 0.000000
vn 0.098016 0.000000 0.995185
vn 0.290287 0.000000 0.956940
vn 0.000001 -1.000000 0.000002
vn -0.098015 0.000000 0.995185
vn -0.773012 0.000000 0.634391
vn -0.881921 0.000000 0.471398
vn -0.956940 0.000000 -0.290285
vn -0.881922 0.000000 -0.471395
vn -0.773009 0.000000 -0.634395
vn -0.634392 0.000000 -0.773011
vn -0.471398 0.000000 -0.881920
vn -0.290281 0.000000 -0.956941
vn 0.098015 0.000000 -0.995185
vn 0.290281 0.000000 -0.956941
vn 0.634389 0.000000 -0.773014
vn 0.995185 0.000000 -0.098018
vn 0.773009 0.000000 0.634395
vn 0.634388 0.000000 0.773015
vn 0.000000 1.000000 -0.000003
vn -0.000020 1.000000 -0.000006
vn 0.000000 1.000000 0.000001
vn -0.000062 1.000000 -0.000006
vn 0.000004 1.000000 -0.000004
vn 0.000000 1.000000 0.000003
vn 0.290281 0.000000 0.956941
vn -0.000002 1.000000 -0.000001
vn -0.000002 1.000000 -0.000002
vn -0.000000 1.000000 -0.000001
vn -0.000001 1.000000 -0.000001
vn 0.000062 1.000000 -0.000006
vn 0.000006 1.000000 -0.000004
vn 0.000001 1.000000 -0.000001
vn 0.000000 -1.000000 -0.000001
vn 0.000000 -1.000000 0.000000
vn 0.000059 -1.000000 0.000018
vn -0.000011 -1.000000 0.000001
vn 0.000018 -1.000000 0.000010
vn 0.000062 -1.000000 0.000006
vn -0.000000 -1.000000 0.000001
vn -0.000004 -1.000000 0.000002
vn 0.000020 -1.000000 0.000006
vn -0.000001 -1.000000 0.000001
vn 0.000000 -1.000000 0.000003
vn 0.000006 -1.000000 0.000005
s off
f 2/1/1 4/2/1 3/3/1
f 4/1/2 6/2/2 5/3/2
f 6/1/3 8/2/3 7/3/3
f 8/1/4 10/2/4 9/3/4
f 10/1/5 12/2/5 11/3/5
f 12/1/6 14/2/6 13/3/6
f 14/1/7 16/2/7 15/3/7
f 16/1/8 18/2/8 17/3/8
f 18/1/9 20/2/9 19/3/9
f 20/1/10 22/2/10 21/3/10
f 22/1/11 24/2/11 23/3/11
f 24/1/12 26/2/12 25/3/12
f 26/1/13 28/2/13 27/3/13
f 28/1/14 30/2/14 29/3/14
f 29/4/15 30/1/15 32/2/15
f 32/1/16 34/2/16 33/3/16
f 34/1/17 36/2/17 35/3/17
f 36/1/18 38/2/18 37/3/18
f 38/1/19 40/2/19 39/3/19
f 40/1/20 42/2/20 41/3/20
f 42/1/21 44/2/21 43/3/21
f 44/1/22 46/2/22 45/3/22
f 46/1/23 48/2/23 47/3/23
f 47/4/24 48/1/24 50/2/24
f 50/1/25 52/2/25 51/3/25
f 52/1/26 54/2/26 53/3/26
f 54/1/27 56/2/27 55/3/27
f 56/1/28 58/2/28 57/3/28
f 58/1/29 60/2/29 59/3/29
f 60/1/30 62/2/30 61/3/30
f 6/5/31 4/6/31 8/7/31
f 63/4/32 64/1/32 2/2/32
f 62/1/33 64/2/33 63/3/33
f 7/8/34 23/9/34 35/10/34
f 1/4/35 2/1/35 3/3/35
f 3/4/2 4/1/2 5/3/2
f 5/4/3 6/1/3 7/3/3
f 7/4/4 8/1/4 9/3/4
f 9/4/36 10/1/36 11/3/36
f 11/4/37 12/1/37 13/3/37
f 13/4/7 14/1/7 15/3/7
f 15/4/8 16/1/8 17/3/8
f 17/4/9 18/1/9 19/3/9
f 19/4/38 20/1/38 21/3/38
f 21/4/39 22/1/39 23/3/39
f 23/4/40 24/1/40 25/3/40
f 25/4/41 26/1/41 27/3/41
f 27/4/42 28/1/42 29/3/42
f 31/3/43 29/4/43 32/2/43
f 31/4/16 32/1/16 33/3/16
f 33/4/44 34/1/44 35/3/44
f 35/4/45 36/1/45 37/3/45
f 37/4/19 38/1/19 39/3/19
f 39/4/46 40/1/46 41/3/46
f 41/4/21 42/1/21 43/3/21
f 43/4/22 44/1/22 45/3/22
f 45/4/23 46/1/23 47/3/23
f 49/3/47 47/4/47 50/2/47
f 49/4/25 50/1/25 51/3/25
f 51/4/26 52/1/26 53/3/26
f 53/4/27 54/1/27 55/3/27
f 55/4/48 56/1/48 57/3/48
f 57/4/49 58/1/49 59/3/49
f 59/4/30 60/1/30 61/3/30
f 64/11/50 62/8/50 60/12/50
f 48/13/51 54/14/51 52/15/51
f 58/16/31 54/14/31 60/12/31
f 58/16/52 56/17/52 54/14/52
f 50/18/53 48/13/53 52/15/53
f 30/19/31 26/20/31 24/21/31
f 46/9/31 44/22/31 42/23/31
f 38/24/31 36/25/31 40/26/31
f 34/10/31 30/19/31 36/25/31
f 34/10/50 32/27/50 30/19/50
f 30/19/31 28/28/31 26/20/31
f 48/13/52 46/9/52 42/23/52
f 16/29/54 4/6/54 22/30/54
f 16/29/31 8/7/31 4/6/31
f 10/31/55 8/7/55 12/32/55
f 1/3/32 63/4/32 2/2/32
f 4/6/31 64/11/31 60/12/31
f 16/29/31 14/33/31 12/32/31
f 8/7/31 16/29/31 12/32/31
f 61/4/56 62/1/56 63/3/56
f 36/25/52 42/23/52 40/26/52
f 4/6/31 2/34/31 64/11/31
f 22/30/57 4/6/57 24/21/57
f 30/19/31 24/21/31 36/25/31
f 20/35/51 16/29/51 22/30/51
f 54/14/58 42/23/58 60/12/58
f 4/6/59 60/12/59 36/25/59
f 4/6/60 36/25/60 24/21/60
f 20/35/61 18/36/61 16/29/61
f 48/13/62 42/23/62 54/14/62
f 42/23/63 36/25/63 60/12/63
f 63/5/64 1/6/64 3/34/64
f 3/34/65 5/11/65 7/8/65
f 7/8/65 9/12/65 11/16/65
f 11/16/65 13/17/65 15/14/65
f 19/18/66 21/13/66 17/15/66
f 15/14/67 17/15/67 23/9/67
f 27/23/64 29/26/64 25/22/64
f 17/15/68 21/13/68 23/9/68
f 35/10/65 29/26/65 33/25/65
f 35/10/65 37/27/65 39/19/65
f 29/26/65 23/9/65 25/22/65
f 47/30/65 41/28/65 45/21/65
f 47/30/69 49/35/69 51/36/69
f 53/29/65 55/33/65 57/32/65
f 59/31/65 53/29/65 57/32/65
f 59/31/65 61/7/65 63/5/65
f 7/8/70 41/28/70 3/34/70
f 7/8/65 11/16/65 15/14/65
f 7/8/71 15/14/71 23/9/71
f 39/19/65 41/28/65 35/10/65
f 47/30/72 51/36/72 53/29/72
f 29/26/64 31/24/64 33/25/64
f 63/5/65 3/34/65 59/31/65
f 41/28/73 47/30/73 3/34/73
f 35/10/65 23/9/65 29/26/65
f 35/10/73 41/28/73 7/8/73
f 41/28/65 43/20/65 45/21/65
f 3/34/74 47/30/74 59/31/74
f 47/30/75 53/29/75 59/31/75
