# Blender v2.70 (sub 0) OBJ File: 'skybox.blend'
# www.blender.org
o cilindro-1
v -0.133179 0.000762 0.297823
v -0.133179 0.019660 0.297823
v -0.143502 0.000762 0.296806
v -0.143502 0.019660 0.296806
v -0.153429 0.000762 0.293795
v -0.153429 0.019660 0.293795
v -0.162577 0.000762 0.288905
v -0.162577 0.019660 0.288905
v -0.170595 0.000762 0.282325
v -0.170595 0.019660 0.282325
v -0.177176 0.000762 0.274306
v -0.177176 0.019660 0.274306
v -0.182066 0.000762 0.265158
v -0.182066 0.019660 0.265158
v -0.185077 0.000762 0.255232
v -0.185077 0.019660 0.255232
v -0.186093 0.000762 0.244909
v -0.186093 0.019660 0.244909
v -0.185077 0.000762 0.234586
v -0.185077 0.019660 0.234586
v -0.182066 0.000762 0.224659
v -0.182066 0.019660 0.224659
v -0.177176 0.000762 0.215511
v -0.177176 0.019660 0.215511
v -0.170595 0.000762 0.207493
v -0.170595 0.019660 0.207493
v -0.162577 0.000762 0.200912
v -0.162577 0.019660 0.200912
v -0.153429 0.000762 0.196023
v -0.153429 0.019660 0.196023
v -0.143502 0.000762 0.193012
v -0.143502 0.019660 0.193012
v -0.133179 0.000762 0.191995
v -0.133179 0.019660 0.191995
v -0.122856 0.000762 0.193012
v -0.122856 0.019660 0.193012
v -0.112930 0.000762 0.196023
v -0.112930 0.019660 0.196023
v -0.103782 0.000762 0.200912
v -0.103782 0.019660 0.200912
v -0.095764 0.000762 0.207493
v -0.095764 0.019660 0.207493
v -0.089183 0.000762 0.215511
v -0.089183 0.019660 0.215511
v -0.084293 0.000762 0.224660
v -0.084293 0.019660 0.224660
v -0.081282 0.000762 0.234586
v -0.081282 0.019660 0.234586
v -0.080265 0.000762 0.244909
v -0.080265 0.019660 0.244909
v -0.081282 0.000762 0.255232
v -0.081282 0.019660 0.255232
v -0.084293 0.000762 0.265158
v -0.084293 0.019660 0.265158
v -0.089183 0.000762 0.274306
v -0.089183 0.019660 0.274306
v -0.095764 0.000762 0.282325
v -0.095764 0.019660 0.282325
v -0.103782 0.000762 0.288905
v -0.103782 0.019660 0.288905
v -0.112930 0.000762 0.293795
v -0.112930 0.019660 0.293795
v -0.122857 0.000762 0.296806
v -0.122857 0.019660 0.296806
vt 0.141129 0.621266
vt 0.141129 0.575768
vt 0.320565 0.575768
vt 0.141129 0.534822
vt 0.320564 0.534822
vt 0.141129 0.500000
vt 0.320564 0.500000
vt 0.679436 0.000000
vt 0.679436 0.034822
vt 0.500000 0.034822
vt 0.679436 0.075768
vt 0.500000 0.075768
vt 0.679436 0.121265
vt 0.500000 0.121265
vt 0.679436 0.169565
vt 0.500000 0.169565
vt 0.679436 0.218811
vt 0.500000 0.218811
vt 0.679436 0.267110
vt 0.500000 0.267110
vt 0.679436 0.312607
vt 0.500000 0.312607
vt 0.679436 0.353553
vt 0.500000 0.353553
vt 0.679436 0.388375
vt 0.500000 0.388375
vt 0.320565 0.853554
vt 0.320565 0.818732
vt 0.500000 0.818732
vt 0.320565 0.777785
vt 0.500000 0.777785
vt 0.320565 0.732288
vt 0.500000 0.732288
vt 0.320565 0.683989
vt 0.500000 0.683989
vt 0.320565 0.634743
vt 0.500000 0.634743
vt 0.320565 0.586443
vt 0.500000 0.586443
vt 0.320565 0.540946
vt 0.500000 0.540946
vt 0.320565 0.500000
vt 0.500000 0.500000
vt 0.679436 0.318732
vt 0.679436 0.277785
vt 0.858871 0.277785
vt 0.679436 0.232288
vt 0.858871 0.232288
vt 0.679436 0.183989
vt 0.858871 0.183989
vt 0.679436 0.134743
vt 0.858871 0.134743
vt 0.679436 0.086443
vt 0.858871 0.086443
vt 0.679436 0.040946
vt 0.858871 0.040946
vt 0.858871 0.000000
vt 0.141129 0.853553
vt 0.141129 0.812607
vt 0.320565 0.812607
vt 0.141129 0.767110
vt 0.320565 0.767110
vt 0.141129 0.718810
vt 0.320565 0.718810
vt 1.000000 0.725377
vt 0.528453 0.631581
vt 0.822922 0.509607
vt 0.141129 0.669565
vt 0.320564 0.621266
vt 0.320565 0.669565
vt 0.490393 0.177078
vt 0.322922 0.490393
vt 0.177078 0.009607
vt 0.500000 0.000000
vt 0.500000 0.853554
vt 0.858871 0.318732
vt 0.320565 0.853553
vt 0.509607 0.822922
vt 0.500000 0.725377
vt 0.528453 0.868419
vt 0.500000 0.774623
vt 0.509607 0.677078
vt 0.555812 0.590634
vt 0.590634 0.555812
vt 0.631581 0.528453
vt 0.677078 0.509607
vt 0.971547 0.631581
vt 0.944188 0.590634
vt 0.909366 0.555812
vt 0.990393 0.677078
vt 1.000000 0.774623
vt 0.971547 0.868420
vt 0.990393 0.822923
vt 0.944188 0.909366
vt 0.909366 0.944188
vt 0.868420 0.528453
vt 0.725377 1.000000
vt 0.868419 0.971547
vt 0.774623 1.000000
vt 0.677078 0.990393
vt 0.631580 0.971547
vt 0.590634 0.944188
vt 0.555812 0.909366
vt 0.822922 0.990393
vt 0.725377 0.500000
vt 0.774623 0.500000
vt 0.000000 0.225377
vt 0.028453 0.368419
vt 0.000000 0.274623
vt 0.028453 0.131581
vt 0.055812 0.090634
vt 0.009607 0.177078
vt 0.090634 0.444188
vt 0.055812 0.409366
vt 0.322922 0.009607
vt 0.409366 0.055812
vt 0.225377 0.000000
vt 0.274623 0.000000
vt 0.368419 0.028453
vt 0.131581 0.028453
vt 0.471547 0.131581
vt 0.500000 0.225377
vt 0.500000 0.274623
vt 0.490393 0.322922
vt 0.471547 0.368419
vt 0.444188 0.409366
vt 0.409366 0.444188
vt 0.368419 0.471547
vt 0.225377 0.500000
vt 0.177078 0.490393
vt 0.274623 0.500000
vt 0.131580 0.471547
vt 0.444188 0.090634
vt 0.090634 0.055812
vt 0.009607 0.322922
vn -0.098018 0.000000 0.995185
vn -0.290286 0.000000 0.956940
vn -0.471395 0.000000 0.881922
vn -0.634393 0.000000 0.773011
vn -0.773012 0.000000 0.634391
vn -0.881922 0.000000 0.471396
vn -0.956941 0.000000 0.290284
vn -0.995185 0.000000 0.098018
vn -0.995185 0.000000 -0.098018
vn -0.956940 0.000000 -0.290285
vn -0.881922 0.000000 -0.471396
vn -0.773010 0.000000 -0.634393
vn -0.634393 0.000000 -0.773011
vn -0.471395 0.000000 -0.881922
vn -0.290284 0.000000 -0.956941
vn -0.098018 0.000000 -0.995185
vn 0.098018 0.000000 -0.995185
vn 0.290284 0.000000 -0.956940
vn 0.471397 0.000000 -0.881921
vn 0.634391 0.000000 -0.773012
vn 0.773010 0.000000 -0.634394
vn 0.881921 0.000000 -0.471397
vn 0.956941 0.000000 -0.290283
vn 0.995185 0.000000 -0.098016
vn 0.995185 0.000000 0.098018
vn 0.956940 0.000000 0.290285
vn 0.881923 0.000000 0.471394
vn 0.773009 0.000000 0.634396
vn 0.634392 0.000000 0.773012
vn 0.471391 0.000000 0.881924
vn 0.000000 1.000000 0.000000
vn 0.098009 0.000000 0.995185
vn 0.290286 0.000000 0.956940
vn 0.000000 -1.000000 0.000000
vn -0.290282 0.000000 0.956941
vn -0.773009 0.000000 0.634396
vn -0.956940 0.000000 0.290285
vn -0.956941 0.000000 -0.290284
vn -0.881923 0.000000 -0.471394
vn -0.773009 0.000000 -0.634396
vn -0.634396 0.000000 -0.773008
vn -0.471399 0.000000 -0.881920
vn -0.290282 0.000000 -0.956941
vn 0.290284 0.000000 -0.956941
vn 0.471399 0.000000 -0.881920
vn 0.634394 0.000000 -0.773010
vn 0.773013 0.000000 -0.634390
vn 0.881922 0.000000 -0.471395
vn 0.956940 0.000000 -0.290285
vn 0.995185 0.000000 -0.098017
vn 0.956940 0.000000 0.290287
vn 0.881920 0.000000 0.471398
vn 0.471399 0.000000 0.881920
vn 0.000000 1.000000 0.000001
vn 0.000000 1.000000 0.000003
vn 0.000000 1.000000 -0.000001
vn 0.098019 0.000000 0.995184
s off
f 2/1/1 4/2/1 3/3/1
f 4/2/2 6/4/2 5/5/2
f 6/4/3 8/6/3 7/7/3
f 8/8/4 10/9/4 9/10/4
f 10/9/5 12/11/5 11/12/5
f 12/11/6 14/13/6 13/14/6
f 14/13/7 16/15/7 15/16/7
f 16/15/8 18/17/8 17/18/8
f 18/17/9 20/19/9 19/20/9
f 20/19/10 22/21/10 21/22/10
f 22/21/11 24/23/11 23/24/11
f 24/23/12 26/25/12 25/26/12
f 26/27/13 28/28/13 27/29/13
f 28/28/14 30/30/14 29/31/14
f 30/30/15 32/32/15 31/33/15
f 32/32/16 34/34/16 33/35/16
f 34/34/17 36/36/17 35/37/17
f 36/36/18 38/38/18 37/39/18
f 38/38/19 40/40/19 39/41/19
f 40/40/20 42/42/20 41/43/20
f 42/44/21 44/45/21 43/46/21
f 44/45/22 46/47/22 45/48/22
f 46/47/23 48/49/23 47/50/23
f 48/49/24 50/51/24 49/52/24
f 50/51/25 52/53/25 51/54/25
f 52/53/26 54/55/26 53/56/26
f 54/55/27 56/8/27 55/57/27
f 56/58/28 58/59/28 57/60/28
f 58/59/29 60/61/29 59/62/29
f 60/61/30 62/63/30 61/64/30
f 32/65/31 58/66/31 44/67/31
f 64/68/32 2/1/32 1/69/32
f 62/63/33 64/68/33 63/70/33
f 31/71/34 47/72/34 15/73/34
f 1/69/1 2/1/1 3/3/1
f 3/3/35 4/2/35 5/5/35
f 5/5/3 6/4/3 7/7/3
f 7/74/4 8/8/4 9/10/4
f 9/10/36 10/9/36 11/12/36
f 11/12/6 12/11/6 13/14/6
f 13/14/37 14/13/37 15/16/37
f 15/16/8 16/15/8 17/18/8
f 17/18/9 18/17/9 19/20/9
f 19/20/38 20/19/38 21/22/38
f 21/22/39 22/21/39 23/24/39
f 23/24/40 24/23/40 25/26/40
f 25/75/41 26/27/41 27/29/41
f 27/29/42 28/28/42 29/31/42
f 29/31/43 30/30/43 31/33/43
f 31/33/16 32/32/16 33/35/16
f 33/35/17 34/34/17 35/37/17
f 35/37/44 36/36/44 37/39/44
f 37/39/45 38/38/45 39/41/45
f 39/41/46 40/40/46 41/43/46
f 41/76/47 42/44/47 43/46/47
f 43/46/48 44/45/48 45/48/48
f 45/48/49 46/47/49 47/50/49
f 47/50/50 48/49/50 49/52/50
f 49/52/25 50/51/25 51/54/25
f 51/54/51 52/53/51 53/56/51
f 53/56/52 54/55/52 55/57/52
f 55/77/28 56/58/28 57/60/28
f 57/60/29 58/59/29 59/62/29
f 59/62/53 60/61/53 61/64/53
f 2/78/31 62/79/31 4/80/31
f 2/78/54 64/81/54 62/79/54
f 62/79/54 60/82/54 58/66/54
f 58/66/31 56/83/31 54/84/31
f 54/84/31 52/85/31 50/86/31
f 61/64/33 62/63/33 63/70/33
f 36/87/31 32/65/31 44/67/31
f 38/88/55 36/87/55 40/89/55
f 34/90/31 32/65/31 36/87/31
f 32/65/31 30/91/31 26/92/31
f 30/91/56 28/93/56 26/92/56
f 26/92/31 24/94/31 22/95/31
f 44/67/31 42/96/31 40/89/31
f 14/97/31 20/98/31 16/99/31
f 14/97/31 12/100/31 10/101/31
f 10/101/54 8/102/54 6/103/54
f 20/98/31 18/104/31 16/99/31
f 36/87/31 44/67/31 40/89/31
f 48/105/31 46/106/31 44/67/31
f 6/103/31 62/79/31 58/66/31
f 6/103/31 58/66/31 22/95/31
f 22/95/31 32/65/31 26/92/31
f 62/79/31 6/103/31 4/80/31
f 14/97/31 10/101/31 6/103/31
f 58/66/31 54/84/31 44/67/31
f 54/84/31 48/105/31 44/67/31
f 22/95/31 58/66/31 32/65/31
f 22/95/31 14/97/31 6/103/31
f 54/84/31 50/86/31 48/105/31
f 63/70/57 64/68/57 1/69/57
f 14/97/31 22/95/31 20/98/31
f 3/107/34 61/108/34 1/109/34
f 7/110/34 9/111/34 5/112/34
f 57/113/34 59/114/34 61/108/34
f 21/115/34 25/116/34 31/71/34
f 15/73/34 17/117/34 19/118/34
f 23/119/34 25/116/34 21/115/34
f 13/120/34 15/73/34 5/112/34
f 31/71/34 25/116/34 29/121/34
f 31/71/34 33/122/34 35/123/34
f 35/123/34 37/124/34 39/125/34
f 39/125/34 41/126/34 43/127/34
f 43/127/34 45/128/34 47/72/34
f 51/129/34 53/130/34 49/131/34
f 55/132/34 57/113/34 53/130/34
f 43/127/34 31/71/34 35/123/34
f 25/116/34 27/133/34 29/121/34
f 53/130/34 47/72/34 49/131/34
f 9/111/34 13/120/34 5/112/34
f 15/73/34 47/72/34 3/107/34
f 31/71/34 15/73/34 19/118/34
f 39/125/34 43/127/34 35/123/34
f 47/72/34 31/71/34 43/127/34
f 9/111/34 11/134/34 13/120/34
f 15/73/34 3/107/34 5/112/34
f 57/113/34 61/108/34 3/107/34
f 53/130/34 57/113/34 47/72/34
f 61/108/34 63/135/34 1/109/34
f 47/72/34 57/113/34 3/107/34
f 19/118/34 21/115/34 31/71/34
