# Blender v2.70 (sub 0) OBJ File: 'skybox.blend'
# www.blender.org
o lancador
v -0.363923 0.019738 -0.519874
v -0.363923 0.019738 -0.319874
v -0.368609 0.008425 -0.519874
v -0.368609 0.008425 -0.319874
v -0.379923 0.003738 -0.519874
v -0.379923 0.003738 -0.319874
v -0.391237 0.008425 -0.519874
v -0.391237 0.008425 -0.319874
v -0.395923 0.019738 -0.519874
v -0.395923 0.019738 -0.319874
v -0.391237 0.031052 -0.519874
v -0.391237 0.031052 -0.319874
v -0.379923 0.035738 -0.519874
v -0.379923 0.035738 -0.319874
v -0.368609 0.031052 -0.519874
v -0.368609 0.031052 -0.319874
vt 0.000000 0.000000
vt 1.000000 0.000000
vt 1.000000 1.000000
vt 0.000000 1.000000
vt 1.000000 0.500000
vt 0.853553 0.146447
vt 0.000000 0.500000
vt 0.146447 0.146447
vt 0.146447 0.853553
vt 0.853553 0.853553
vt 0.500000 1.000000
vt 0.500000 0.000000
vn 0.923878 -0.382687 0.000001
vn 0.382681 -0.923881 0.000000
vn -0.382684 -0.923879 -0.000000
vn -0.923880 -0.382682 -0.000001
vn -0.923880 0.382682 -0.000001
vn -0.382683 0.923880 -0.000000
vn -0.000005 0.000001 1.000000
vn 0.923878 0.382687 0.000001
vn 0.382683 0.923880 0.000000
vn 0.000004 -0.000006 -1.000000
vn 0.923880 -0.382682 0.000001
vn 0.382683 -0.923880 0.000000
vn -0.382686 -0.923878 -0.000000
vn -0.923878 -0.382687 -0.000001
vn -0.923878 0.382687 -0.000001
vn 0.000000 0.000000 1.000000
vn -0.000001 0.000000 1.000000
vn 0.000004 0.000000 1.000000
vn 0.000000 -0.000001 1.000000
vn 0.923880 0.382682 0.000001
vn 0.382684 0.923879 0.000000
vn 0.000000 0.000000 -1.000000
vn 0.000009 0.000006 -1.000000
vn 0.000009 0.000000 -1.000000
vn 0.000001 0.000000 -1.000000
vn 0.000002 0.000000 -1.000000
s off
f 1/1/1 2/2/1 4/3/1
f 4/2/2 6/3/2 5/4/2
f 6/2/3 8/3/3 7/4/3
f 7/1/4 8/2/4 10/3/4
f 10/2/5 12/3/5 11/4/5
f 12/2/6 14/3/6 13/4/6
f 16/5/7 14/6/7 8/7/7
f 16/2/8 2/3/8 1/4/8
f 13/1/9 14/2/9 16/3/9
f 11/8/10 13/7/10 15/9/10
f 3/4/11 1/1/11 4/3/11
f 3/1/12 4/2/12 5/4/12
f 5/1/13 6/2/13 7/4/13
f 9/4/14 7/1/14 10/3/14
f 9/1/15 10/2/15 11/4/15
f 11/1/6 12/2/6 13/4/6
f 2/10/16 16/5/16 4/11/16
f 16/5/17 6/9/17 4/11/17
f 14/6/18 12/12/18 10/8/18
f 6/9/19 16/5/19 8/7/19
f 15/1/20 16/2/20 1/4/20
f 15/4/21 13/1/21 16/3/21
f 14/6/16 10/8/16 8/7/16
f 15/9/22 1/11/22 3/10/22
f 3/10/23 5/5/23 7/6/23
f 7/6/24 9/12/24 11/8/24
f 15/9/25 3/10/25 7/6/25
f 7/6/26 11/8/26 15/9/26
