# Blender v2.70 (sub 0) OBJ File: 'skybox.blend'
# www.blender.org
o mesa-lancador
v -0.307857 0.000762 0.429952
v -0.304914 0.000762 0.426752
v -0.302800 0.000762 0.423909
v -0.302202 0.000762 0.422787
v -0.302044 0.000762 0.422330
v -0.301812 0.000762 0.420363
v -0.301279 0.000762 0.418122
v -0.300390 0.000762 0.415821
v -0.300246 0.000762 0.415176
v -0.300217 0.000762 0.414574
v -0.300307 0.000762 0.414013
v -0.300518 0.000762 0.413491
v -0.300856 0.000762 0.413005
v -0.301323 0.000762 0.412555
v -0.301924 0.000762 0.412138
v -0.302662 0.000762 0.411753
v -0.303540 0.000762 0.411397
v -0.309412 0.000762 0.409835
v -0.311563 0.000762 0.408905
v -0.313540 0.000762 0.407643
v -0.315373 0.000762 0.405996
v -0.317091 0.000762 0.403907
v -0.318724 0.000762 0.401324
v -0.320301 0.000762 0.398190
v -0.323407 0.000762 0.390055
v -0.336105 0.000762 0.334374
v -0.346377 0.000762 0.174542
v -0.344751 0.000762 0.158968
v -0.342258 0.000762 0.146853
v -0.337057 0.000762 0.130985
v -0.330692 0.000762 0.117308
v -0.322624 0.000762 0.105128
v -0.312311 0.000762 0.093747
v -0.268997 0.000762 0.060385
v -0.266038 0.000762 0.057171
v -0.263753 0.000762 0.053563
v -0.262055 0.000762 0.049271
v -0.260858 0.000762 0.044001
v -0.259614 0.000762 0.029358
v -0.261236 0.000762 -0.064458
v -0.261600 0.000762 -0.066569
v -0.261989 0.000762 -0.067775
v -0.262484 0.000762 -0.068554
v -0.265712 0.000762 -0.072060
v -0.305398 0.000762 -0.104173
v -0.321517 0.000762 -0.120960
v -0.327432 0.000762 -0.129224
v -0.332124 0.000762 -0.137629
v -0.338341 0.000762 -0.151544
v -0.342564 0.000762 -0.165140
v -0.344042 0.000762 -0.172997
v -0.345957 0.000762 -0.193184
v -0.345991 0.000762 -0.399182
v -0.138232 0.000762 -0.472401
v -0.135332 0.000762 -0.473770
v -0.133985 0.000762 -0.474635
v -0.133340 0.000762 -0.475418
v -0.132740 0.000762 -0.476436
v -0.131674 0.000762 -0.479177
v -0.130073 0.000762 -0.487512
v -0.128118 0.000762 -0.521027
v -0.357992 0.000762 -0.521027
v -0.355177 0.000762 0.318193
v -0.346991 0.000762 0.371796
v -0.341060 0.000762 0.394288
v -0.328708 0.000762 0.422978
v -0.323962 0.000762 0.430654
v -0.321791 0.000762 0.433018
v -0.319675 0.000762 0.434471
v -0.317556 0.000762 0.435067
v -0.315374 0.000762 0.434859
v -0.313069 0.000762 0.433902
v -0.310584 0.000762 0.432248
v -0.307857 0.038558 0.429952
v -0.304914 0.038558 0.426752
v -0.302800 0.038558 0.423909
v -0.302202 0.038558 0.422787
v -0.302044 0.038558 0.422330
v -0.301812 0.038558 0.420363
v -0.301279 0.038558 0.418122
v -0.300390 0.038558 0.415821
v -0.300246 0.038558 0.415176
v -0.300217 0.038558 0.414574
v -0.300307 0.038558 0.414013
v -0.300518 0.038558 0.413491
v -0.300856 0.038558 0.413005
v -0.301323 0.038558 0.412555
v -0.301924 0.038558 0.412138
v -0.302662 0.038558 0.411753
v -0.303540 0.038558 0.411397
v -0.309412 0.038558 0.409835
v -0.311563 0.038558 0.408905
v -0.313540 0.038558 0.407643
v -0.315373 0.038558 0.405996
v -0.317091 0.038558 0.403907
v -0.318724 0.038558 0.401324
v -0.320301 0.038558 0.398190
v -0.323407 0.038558 0.390055
v -0.336105 0.038558 0.334374
v -0.346377 0.038558 0.174542
v -0.344751 0.038558 0.158968
v -0.342258 0.038558 0.146853
v -0.337057 0.038558 0.130985
v -0.330692 0.038558 0.117308
v -0.322624 0.038558 0.105128
v -0.312311 0.038558 0.093747
v -0.268997 0.038558 0.060385
v -0.266038 0.038558 0.057171
v -0.263753 0.038558 0.053563
v -0.262055 0.038558 0.049271
v -0.260858 0.038558 0.044001
v -0.259614 0.038558 0.029358
v -0.261236 0.038558 -0.064458
v -0.261600 0.038558 -0.066569
v -0.261989 0.038558 -0.067775
v -0.262484 0.038558 -0.068554
v -0.265712 0.038558 -0.072060
v -0.305398 0.038558 -0.104173
v -0.321517 0.038558 -0.120960
v -0.327432 0.038558 -0.129224
v -0.332124 0.038558 -0.137629
v -0.338341 0.038558 -0.151544
v -0.342564 0.038558 -0.165140
v -0.344042 0.038558 -0.172997
v -0.345957 0.038558 -0.193184
v -0.345991 0.038558 -0.399182
v -0.138232 0.038558 -0.472401
v -0.135332 0.038558 -0.473770
v -0.133985 0.038558 -0.474635
v -0.133340 0.038558 -0.475418
v -0.132740 0.038558 -0.476436
v -0.131674 0.038558 -0.479177
v -0.130073 0.038558 -0.487512
v -0.128118 0.038558 -0.521027
v -0.357992 0.038558 -0.521027
v -0.355177 0.038558 0.318193
v -0.346991 0.038558 0.371796
v -0.341060 0.038558 0.394288
v -0.328708 0.038558 0.422978
v -0.323962 0.038558 0.430654
v -0.321791 0.038558 0.433018
v -0.319675 0.038558 0.434471
v -0.317556 0.038558 0.435067
v -0.315374 0.038558 0.434859
v -0.313069 0.038558 0.433902
v -0.310584 0.038558 0.432248
vt 0.888799 0.399221
vt 0.887698 0.387726
vt 0.889040 0.189827
vt 0.638141 0.189827
vt 0.639075 0.198695
vt 0.639483 0.387726
vt 0.466637 0.430440
vt 0.466637 0.860881
vt 0.462050 0.860881
vt 0.306768 0.569560
vt 0.306768 1.000000
vt 0.182710 1.000000
vt 0.607979 0.430440
vt 0.607979 0.860881
vt 0.606055 0.860881
vt 0.972014 0.000000
vt 0.972014 0.430440
vt 0.971693 0.430440
vt 0.966720 0.000000
vt 0.966720 0.430440
vt 0.963242 0.430440
vt 0.971693 0.000000
vt 0.971367 0.430440
vt 0.593263 0.430440
vt 0.593263 0.860881
vt 0.593030 0.860881
vt 0.950331 0.860881
vt 0.950331 0.430440
vt 0.957777 0.430440
vt 0.616934 0.000000
vt 0.616934 0.430440
vt 0.608477 0.430440
vt 0.434480 0.569560
vt 0.434480 1.000000
vt 0.433087 1.000000
vt 0.603622 0.430440
vt 0.603621 0.860881
vt 0.601583 0.860881
vt 0.961816 0.000000
vt 0.961816 0.430440
vt 0.961475 0.430440
vt 0.613049 0.430440
vt 0.613049 0.860881
vt 0.608625 0.860881
vt 0.453880 0.430440
vt 0.453880 0.860881
vt 0.445254 0.860881
vt 0.963242 0.000000
vt 0.962697 0.430440
vt 0.933978 0.860881
vt 0.933978 0.430440
vt 0.942559 0.430440
vt 0.593030 0.430440
vt 0.478160 0.860881
vt 0.599867 0.430440
vt 0.599867 0.860881
vt 0.598463 0.860881
vt 0.477308 0.000000
vt 0.477308 0.430440
vt 0.444489 0.430440
vt 0.987981 0.430440
vt 0.987981 0.860881
vt 0.960213 0.860881
vt 0.968065 0.000000
vt 0.968065 0.430440
vt 0.608477 0.000000
vt 0.971367 0.000000
vt 0.971036 0.430440
vt 0.431913 0.569560
vt 0.431913 1.000000
vt 0.430993 1.000000
vt 0.606055 0.430440
vt 0.434480 0.530990
vt 0.000000 0.530990
vt 0.000000 0.500347
vt 0.444489 0.000000
vt 0.439520 0.430440
vt 0.895716 0.860881
vt 0.895716 0.430440
vt 0.897911 0.430440
vt 0.445254 0.430440
vt 0.439913 0.860881
vt 0.897911 0.860881
vt 0.900163 0.430440
vt 0.960972 0.000000
vt 0.960972 0.430440
vt 0.960245 0.430440
vt 0.942559 0.860881
vt 0.429173 0.569560
vt 0.429173 1.000000
vt 0.430993 0.569560
vt 0.437553 0.000000
vt 0.437553 0.430440
vt 0.435884 0.430440
vt 0.960245 0.000000
vt 0.959017 0.430440
vt 0.900163 0.860881
vt 0.902609 0.430440
vt 0.623342 0.000000
vt 0.623342 0.430440
vt 0.902609 0.860881
vt 0.960213 0.430440
vt 0.957777 0.860881
vt 0.434480 0.568437
vt 0.000000 0.568437
vt 0.000000 0.566806
vt 0.631465 0.430440
vt 0.631465 0.860881
vt 0.435884 0.000000
vt 0.434480 0.430440
vt 0.433087 0.569560
vt 0.432473 1.000000
vt 0.598463 0.430440
vt 0.597358 0.860881
vt 1.000000 0.430440
vt 1.000000 0.860881
vt 0.462050 0.430440
vt 0.608625 0.430440
vt 0.000000 0.569560
vt 0.898488 0.000000
vt 0.898488 0.430440
vt 0.962223 0.000000
vt 0.962223 0.430440
vt 0.601583 0.430440
vt 0.594327 0.430440
vt 0.594327 0.860881
vt 0.432473 0.569560
vt 0.970696 0.000000
vt 0.970696 0.430440
vt 0.969381 0.430440
vt 0.434480 0.500347
vt 0.000000 0.000000
vt 0.631465 0.000000
vt 0.959017 0.000000
vt 0.906479 0.430440
vt 0.439913 0.430440
vt 0.434480 0.860881
vt 0.971036 0.000000
vt 0.439520 0.000000
vt 0.478160 0.430440
vt 0.906479 0.000000
vt 0.434480 0.544234
vt 0.000000 0.544234
vt 0.972331 0.000000
vt 0.972331 0.430440
vt 0.961475 0.000000
vt 0.434480 0.561866
vt 0.000000 0.561866
vt 0.969381 0.000000
vt 0.597358 0.430440
vt 0.596544 0.860881
vt 0.962697 0.000000
vt 0.434480 0.566806
vt 0.595502 0.430440
vt 0.595502 0.860881
vt 0.973498 0.000000
vt 0.973498 0.430440
vt 0.885984 0.023221
vt 0.889394 0.036029
vt 0.875838 0.025631
vt 0.895716 0.585905
vt 0.894098 0.066551
vt 0.764714 0.566820
vt 0.769404 0.558216
vt 0.763590 0.585905
vt 0.766247 0.560513
vt 0.767737 0.558995
vt 0.765634 0.562074
vt 0.766963 0.559488
vt 0.766592 0.559934
vt 0.840103 0.325921
vt 0.842676 0.330250
vt 0.840821 0.328253
vt 0.840313 0.327122
vt 0.840536 0.327809
vt 0.839171 0.272499
vt 0.865486 0.348536
vt 0.842864 0.256662
vt 0.844564 0.254831
vt 0.840574 0.261160
vt 0.841550 0.258716
vt 0.869460 0.235834
vt 0.863914 0.013276
vt 0.863119 0.009649
vt 0.864419 0.013478
vt 0.863145 0.012819
vt 0.862608 0.010959
vt 0.863490 0.013056
vt 0.862682 0.012286
vt 0.862509 0.011669
vt 0.862876 0.012563
vt 0.862560 0.011989
vt 0.862526 0.011326
vt 0.863650 0.006993
vt 0.863993 0.006354
vt 0.863559 0.007253
vt 0.865208 0.004735
vt 0.863426 0.008373
vt 0.868467 0.001605
vt 0.876157 0.002513
vt 0.866900 0.002913
vt 0.871221 0.000118
vt 0.874909 0.001167
vt 0.869896 0.000664
vt 0.872475 0.000000
vt 0.873693 0.000339
vt 0.883136 0.057338
vt 0.880025 0.222417
vt 0.880848 0.367586
vt 0.878151 0.362800
vt 0.875388 0.229353
vt 0.874751 0.358095
vt 0.839886 0.264161
vt 0.878884 0.006884
vt 0.872208 0.017743
vt 0.871220 0.016554
vt 0.867794 0.014368
vt 0.886849 0.383252
vt 0.888106 0.198695
vt 0.869030 0.014897
vt 0.883683 0.214630
vt 0.884421 0.375510
vt 0.757777 0.558216
vt 0.759444 0.558995
vt 0.761547 0.562074
vt 0.870167 0.015616
vt 0.888819 0.516523
vt 0.886673 0.205593
vt 0.873146 0.019214
vt 0.874053 0.020999
vt 0.655961 0.016554
vt 0.654973 0.017743
vt 0.648297 0.006884
vt 0.654706 0.000000
vt 0.655960 0.000118
vt 0.653488 0.000339
vt 0.657285 0.000664
vt 0.652272 0.001167
vt 0.660281 0.002913
vt 0.651024 0.002513
vt 0.658714 0.001605
vt 0.182710 0.569560
vt 0.663188 0.006354
vt 0.663531 0.006993
vt 0.663622 0.007253
vt 0.664655 0.011326
vt 0.664036 0.012819
vt 0.664573 0.010959
vt 0.664621 0.011989
vt 0.664305 0.012563
vt 0.664672 0.011669
vt 0.664499 0.012286
vt 0.662762 0.013478
vt 0.664062 0.009649
vt 0.663267 0.013276
vt 0.687078 0.325921
vt 0.686868 0.327122
vt 0.686360 0.328253
vt 0.684317 0.256662
vt 0.685631 0.258716
vt 0.686607 0.261160
vt 0.649030 0.362800
vt 0.646333 0.367586
vt 0.647156 0.222417
vt 0.661973 0.004735
vt 0.663755 0.008373
vt 0.686645 0.327809
vt 0.642760 0.375510
vt 0.640332 0.383252
vt 0.640508 0.205594
vt 0.687295 0.264161
vt 0.682616 0.254831
vt 0.760218 0.559488
vt 0.760589 0.559934
vt 0.760934 0.560513
vt 0.659387 0.014368
vt 0.633083 0.066551
vt 0.637787 0.036029
vt 0.644045 0.057338
vt 0.684505 0.330250
vt 0.688010 0.272499
vt 0.658151 0.014897
vt 0.657014 0.015616
vt 0.661695 0.348536
vt 0.631465 0.585905
vt 0.762466 0.566820
vt 0.643498 0.214630
vt 0.654035 0.019214
vt 0.641196 0.023221
vt 0.663691 0.013056
vt 0.657721 0.235834
vt 0.652430 0.358095
vt 0.638382 0.399221
vt 0.638362 0.516523
vt 0.651793 0.229353
vt 0.653128 0.020999
vt 0.651343 0.025631
vt 0.957777 0.860880
vt 0.434480 0.000000
vt 0.895716 0.000000
vt 0.596544 0.430440
vn 0.000000 -1.000000 0.000000
vn 0.000000 1.000000 -0.000000
vn 0.982762 0.000000 -0.184874
vn 0.000000 0.000000 -1.000000
vn 0.802605 0.000000 0.596511
vn 0.926760 0.000000 -0.375654
vn 0.257022 0.000000 -0.966405
vn 0.987527 0.000000 -0.157450
vn 0.945048 0.000000 0.326932
vn 0.906640 0.000000 0.421905
vn 0.994594 0.000000 0.103839
vn 0.931938 0.000000 0.362617
vn 0.644172 0.000000 0.764881
vn 0.693823 0.000000 -0.720146
vn 0.982065 0.000000 0.188542
vn 0.913034 0.000000 -0.407883
vn 0.375431 0.000000 -0.926850
vn 0.741022 0.000000 0.671481
vn 1.000000 0.000000 -0.000166
vn 0.383754 0.000000 0.923435
vn 0.974971 0.000000 -0.222330
vn 0.629040 0.000000 -0.777373
vn 0.396875 0.000000 -0.917873
vn 0.997941 0.000000 -0.064135
vn 0.998842 0.000000 0.048119
vn 0.540297 0.000000 0.841474
vn 0.735942 0.000000 0.677044
vn -0.988541 0.000000 0.150952
vn 0.934214 0.000000 -0.356714
vn 0.929897 0.000000 0.367821
vn 0.873121 0.000000 -0.487504
vn 0.844789 0.000000 0.535100
vn 0.951830 0.000000 -0.306625
vn 0.833696 0.000000 0.552223
vn 0.332384 0.000000 0.943144
vn 0.426920 0.000000 0.904289
vn 0.845337 0.000000 -0.534234
vn 0.985412 0.000000 -0.170187
vn 0.735771 0.000000 0.677230
vn 0.979483 0.000000 0.201526
vn 0.610203 0.000000 0.792245
vn 0.735711 0.000000 -0.677295
vn -0.736544 0.000000 0.676389
vn 0.998302 0.000000 0.058251
vn 0.772269 0.000000 -0.635295
vn 0.861418 0.000000 0.507897
vn 0.094741 0.000000 0.995502
vn 0.721313 0.000000 -0.692609
vn 0.954984 0.000000 -0.296659
vn 0.882617 0.000000 0.470093
vn -0.566193 0.000000 0.824273
vn 0.975127 0.000000 0.221645
vn 0.570162 0.000000 -0.821532
vn 0.553856 0.000000 0.832613
vn 0.993108 0.000000 0.117204
vn 0.772213 0.000000 0.635364
vn 0.668564 0.000000 -0.743654
vn -0.999994 0.000000 0.003355
vn 0.950256 0.000000 0.311470
vn 0.999851 0.000000 -0.017286
vn 0.813167 0.000000 -0.582031
vn 0.975991 0.000000 0.217810
vn 0.893239 0.000000 -0.449583
vn 0.995530 0.000000 -0.094448
vn 0.996412 0.000000 0.084639
vn -0.966947 0.000000 0.254977
vn 0.820900 0.000000 -0.571071
vn 0.843796 0.000000 -0.536664
vn -0.918483 0.000000 0.395461
vn 0.537900 0.000000 -0.843009
vn -0.270654 0.000000 0.962677
vn 0.463099 0.000000 -0.886307
vn -0.850555 0.000000 0.525886
vn 0.972841 0.000000 0.231474
vn 0.932802 0.000000 0.360388
vn 0.000000 1.000000 -0.000003
vn 0.000000 1.000000 -0.000019
vn 0.000000 1.000000 0.000025
vn 0.000000 1.000000 -0.000007
vn 0.000000 1.000000 0.000001
vn 0.000000 1.000000 -0.000012
vn 0.000000 1.000000 0.000003
vn 0.000000 1.000000 -0.000001
vn 0.802615 0.000000 0.596497
vn 0.926785 0.000000 -0.375593
vn 0.257022 0.000000 -0.966406
vn 0.987531 0.000000 -0.157423
vn 0.945070 0.000000 0.326869
vn 0.906640 0.000000 0.421906
vn 0.693862 0.000000 -0.720108
vn 0.913034 0.000000 -0.407884
vn 0.741021 0.000000 0.671481
vn 0.383720 0.000000 0.923449
vn 0.735942 0.000000 0.677045
vn 0.929897 0.000000 0.367820
vn 0.873120 0.000000 -0.487505
vn 0.844788 0.000000 0.535101
vn 0.951831 0.000000 -0.306622
vn 0.426945 0.000000 0.904277
vn 0.979483 0.000000 0.201527
vn 0.735710 0.000000 -0.677297
vn -0.736530 0.000000 0.676405
vn 0.772277 0.000000 -0.635286
vn 0.861396 0.000000 0.507933
vn 0.721312 0.000000 -0.692610
vn 0.882634 0.000000 0.470061
vn 0.975127 0.000000 0.221646
vn 0.668575 0.000000 -0.743644
vn 0.950256 0.000000 0.311471
vn 0.975998 0.000000 0.217778
vn 0.843800 0.000000 -0.536658
vn 0.537930 0.000000 -0.842990
vn -0.270695 0.000000 0.962665
vn 0.463145 0.000000 -0.886282
vn 0.972839 0.000000 0.231483
vn 0.932808 0.000000 0.360375
s off
f 52/1/1 51/2/1 27/3/1
f 100/4/2 101/5/2 124/6/2
f 51/7/3 124/8/3 123/9/3
f 62/10/4 135/11/4 134/12/4
f 3/13/5 76/14/5 75/15/5
f 12/16/6 85/17/6 84/18/6
f 18/19/7 91/20/7 90/21/7
f 11/22/8 84/18/8 83/23/8
f 5/24/9 78/25/9 77/26/9
f 31/27/10 104/28/10 103/29/10
f 28/30/11 101/31/11 100/32/11
f 59/33/12 132/34/12 131/35/12
f 1/36/13 74/37/13 146/38/13
f 14/39/14 87/40/14 86/41/14
f 60/42/15 133/43/15 132/44/15
f 49/45/16 122/46/16 121/47/16
f 17/48/17 90/21/17 89/49/17
f 33/50/18 106/51/18 105/52/18
f 53/53/19 126/26/19 125/54/19
f 72/55/20 145/56/20 144/57/20
f 26/58/21 99/59/21 98/60/21
f 45/61/22 118/62/22 117/63/22
f 19/64/23 92/65/23 91/20/23
f 27/66/24 100/32/24 99/59/24
f 10/67/25 83/23/25 82/68/25
f 56/69/26 129/70/26 128/71/26
f 2/72/27 75/15/27 74/37/27
f 64/73/28 137/74/28 136/75/28
f 25/76/29 98/60/29 97/77/29
f 37/78/30 110/79/30 109/80/30
f 48/81/31 121/47/31 120/82/31
f 36/83/32 109/80/32 108/84/32
f 42/85/33 115/86/33 114/87/33
f 32/88/34 105/52/34 104/28/34
f 54/89/35 127/90/35 126/11/35
f 55/91/36 128/71/36 127/90/36
f 23/92/37 96/93/37 95/94/37
f 41/95/38 114/87/38 113/96/38
f 35/97/39 108/84/39 107/98/39
f 29/99/40 102/100/40 101/31/40
f 34/101/41 107/98/41 106/51/41
f 44/102/42 117/63/42 116/103/42
f 68/104/43 141/105/43 140/106/43
f 61/107/44 134/108/44 133/43/44
f 22/109/45 95/94/45 94/110/45
f 58/111/46 131/35/46 130/112/46
f 71/113/47 144/57/47 143/114/47
f 46/115/48 119/116/48 118/62/48
f 50/117/49 123/9/49 122/46/49
f 4/118/50 77/44/50 76/14/50
f 69/33/51 142/119/51 141/105/51
f 38/120/52 111/121/52 110/79/52
f 15/122/53 88/123/53 87/40/53
f 73/124/54 146/38/54 145/56/54
f 6/125/55 79/126/55 78/25/55
f 57/127/56 130/112/56 129/70/56
f 21/128/57 94/129/57 93/130/57
f 63/131/58 136/75/58 135/132/58
f 30/133/59 103/107/59 102/100/59
f 40/134/60 113/96/60 112/135/60
f 47/136/61 120/82/61 119/137/61
f 9/138/62 82/68/62 81/129/62
f 24/139/63 97/77/63 96/93/63
f 52/140/64 125/54/64 124/8/64
f 39/141/65 112/135/65 111/121/65
f 65/142/66 138/143/66 137/74/66
f 13/144/67 86/145/67 85/17/67
f 43/146/68 116/41/68 115/86/68
f 66/147/69 139/148/69 138/143/69
f 20/149/70 93/130/70 92/65/70
f 70/150/71 143/114/71 142/151/71
f 16/152/72 89/49/72 88/123/72
f 67/153/73 140/106/73 139/148/73
f 7/154/74 80/155/74 79/126/74
f 8/156/75 81/157/75 80/145/75
f 65/158/1 64/159/1 25/160/1
f 62/161/1 52/1/1 63/162/1
f 60/163/1 54/164/1 61/165/1
f 58/166/1 55/167/1 59/168/1
f 56/169/1 55/167/1 57/170/1
f 40/171/1 44/172/1 43/173/1
f 41/174/1 40/171/1 43/173/1
f 43/173/1 42/175/1 41/174/1
f 39/176/1 45/177/1 40/171/1
f 35/178/1 34/179/1 37/180/1
f 37/180/1 36/181/1 35/178/1
f 33/182/1 39/176/1 34/179/1
f 16/183/1 7/184/1 17/185/1
f 14/186/1 8/187/1 15/188/1
f 12/189/1 10/190/1 13/191/1
f 12/189/1 11/192/1 10/190/1
f 8/187/1 14/186/1 9/193/1
f 4/194/1 3/195/1 5/196/1
f 2/197/1 6/198/1 3/195/1
f 73/199/1 67/200/1 1/201/1
f 71/202/1 68/203/1 72/204/1
f 71/202/1 70/205/1 69/206/1
f 8/187/1 7/184/1 16/183/1
f 63/162/1 27/3/1 26/207/1
f 31/208/1 48/209/1 47/210/1
f 32/211/1 47/210/1 46/212/1
f 55/167/1 58/166/1 57/170/1
f 39/176/1 38/213/1 34/179/1
f 66/214/1 22/215/1 21/216/1
f 55/167/1 54/164/1 59/168/1
f 18/217/1 2/197/1 1/201/1
f 14/186/1 13/191/1 9/193/1
f 51/2/1 50/218/1 28/219/1
f 66/214/1 19/220/1 1/201/1
f 30/221/1 49/222/1 48/209/1
f 54/164/1 62/161/1 61/165/1
f 127/223/76 128/224/76 132/225/76
f 71/202/1 69/206/1 68/203/1
f 51/2/1 28/219/1 27/3/1
f 20/226/1 19/220/1 66/214/1
f 62/161/1 54/164/1 53/227/1
f 29/228/1 50/218/1 49/222/1
f 13/191/1 10/190/1 9/193/1
f 32/211/1 31/208/1 47/210/1
f 23/229/1 66/214/1 65/158/1
f 53/227/1 52/1/1 62/161/1
f 33/182/1 45/177/1 39/176/1
f 54/164/1 60/163/1 59/168/1
f 23/229/1 22/215/1 66/214/1
f 33/182/1 46/212/1 45/177/1
f 19/220/1 18/217/1 1/201/1
f 33/182/1 32/211/1 46/212/1
f 3/195/1 6/198/1 5/196/1
f 8/187/1 16/183/1 15/188/1
f 45/177/1 44/172/1 40/171/1
f 7/184/1 18/217/1 17/185/1
f 18/217/1 6/198/1 2/197/1
f 34/179/1 38/213/1 37/180/1
f 63/162/1 52/1/1 27/3/1
f 67/200/1 73/199/1 72/204/1
f 23/229/1 65/158/1 24/230/1
f 30/221/1 29/228/1 49/222/1
f 24/230/1 65/158/1 25/160/1
f 7/184/1 6/198/1 18/217/1
f 26/207/1 25/160/1 64/159/1
f 67/200/1 66/214/1 1/201/1
f 64/159/1 63/162/1 26/207/1
f 68/203/1 67/200/1 72/204/1
f 31/208/1 30/221/1 48/209/1
f 50/218/1 29/228/1 28/219/1
f 94/231/2 95/232/2 139/233/2
f 66/214/1 21/216/1 20/226/1
f 143/234/2 144/235/2 142/236/2
f 145/237/2 141/238/2 144/235/2
f 74/239/76 140/240/76 146/241/76
f 61/242/4 62/10/4 134/12/4
f 76/243/77 77/244/77 78/245/77
f 82/246/2 87/247/2 81/248/2
f 84/249/2 86/250/2 83/251/2
f 84/249/78 85/252/78 86/250/78
f 86/250/79 82/246/79 83/251/79
f 90/253/80 80/254/80 89/255/80
f 113/256/2 114/257/2 116/258/2
f 108/259/2 109/260/2 110/261/2
f 120/262/2 121/263/2 104/264/2
f 75/265/2 76/243/2 79/266/2
f 114/257/81 115/267/81 116/258/81
f 122/268/2 123/269/2 102/270/2
f 111/271/76 107/272/76 110/261/76
f 128/224/79 129/273/79 130/274/79
f 132/225/82 128/224/82 131/275/82
f 91/276/80 79/266/80 80/254/80
f 136/277/2 137/278/2 99/279/2
f 140/240/82 141/238/82 145/237/82
f 101/5/2 123/269/2 124/6/2
f 117/280/2 113/256/2 116/258/2
f 76/243/2 78/245/2 79/266/2
f 82/246/2 86/250/2 87/247/2
f 139/233/80 140/240/80 74/239/80
f 91/276/83 80/254/83 90/253/83
f 111/271/2 112/281/2 107/272/2
f 92/282/2 93/283/2 139/233/2
f 117/280/80 118/284/80 113/256/80
f 134/165/2 135/285/2 127/223/2
f 133/286/2 134/165/2 127/223/2
f 93/283/2 94/231/2 139/233/2
f 103/287/2 121/263/2 122/268/2
f 107/272/82 108/259/82 110/261/82
f 139/233/83 95/232/83 96/288/83
f 138/289/2 139/233/2 96/288/2
f 118/284/2 112/281/2 113/256/2
f 89/255/2 80/254/2 81/248/2
f 88/290/2 89/255/2 81/248/2
f 133/286/2 127/223/2 132/225/2
f 112/281/2 106/291/2 107/272/2
f 118/284/2 119/292/2 106/291/2
f 118/284/2 106/291/2 112/281/2
f 125/293/2 126/294/2 135/285/2
f 119/292/2 105/295/2 106/291/2
f 92/282/2 139/233/2 74/239/2
f 75/265/2 91/276/2 74/239/2
f 119/292/2 120/262/2 105/295/2
f 128/224/2 130/274/2 131/275/2
f 125/293/2 135/285/2 136/277/2
f 123/269/2 101/5/2 102/270/2
f 138/289/2 96/288/2 97/296/2
f 91/276/2 75/265/2 79/266/2
f 138/289/2 97/296/2 98/297/2
f 121/263/2 103/287/2 104/264/2
f 91/276/2 92/282/2 74/239/2
f 144/235/2 141/238/2 142/236/2
f 137/278/2 138/289/2 98/297/2
f 140/240/80 145/237/80 146/241/80
f 137/278/2 98/297/2 99/279/2
f 102/270/2 103/287/2 122/268/2
f 100/4/2 136/277/2 99/279/2
f 87/247/2 88/290/2 81/248/2
f 125/293/2 136/277/2 100/4/2
f 120/262/2 104/264/2 105/295/2
f 124/6/2 125/293/2 100/4/2
f 50/117/3 51/7/3 123/9/3
f 135/285/2 126/294/2 127/223/2
f 2/72/84 3/13/84 75/15/84
f 11/22/85 12/16/85 84/18/85
f 17/48/86 18/19/86 90/21/86
f 10/67/87 11/22/87 83/23/87
f 4/53/88 5/24/88 77/26/88
f 30/298/89 31/27/89 103/29/89
f 27/66/11 28/30/11 100/32/11
f 58/111/12 59/33/12 131/35/12
f 73/124/13 1/36/13 146/38/13
f 13/146/90 14/39/90 86/41/90
f 59/118/15 60/42/15 132/44/15
f 48/81/91 49/45/91 121/47/91
f 16/152/17 17/48/17 89/49/17
f 32/88/92 33/50/92 105/52/92
f 52/140/19 53/53/19 125/54/19
f 71/113/93 72/55/93 144/57/93
f 25/76/21 26/58/21 98/60/21
f 44/102/22 45/61/22 117/63/22
f 18/19/23 19/64/23 91/20/23
f 26/58/24 27/66/24 99/59/24
f 9/138/25 10/67/25 82/68/25
f 55/91/26 56/69/26 128/71/26
f 1/36/94 2/72/94 74/37/94
f 63/131/28 64/73/28 136/75/28
f 24/139/29 25/76/29 97/77/29
f 36/83/95 37/78/95 109/80/95
f 47/136/96 48/81/96 120/82/96
f 35/97/97 36/83/97 108/84/97
f 41/95/98 42/85/98 114/87/98
f 31/27/34 32/88/34 104/28/34
f 53/10/35 54/89/35 126/11/35
f 54/89/99 55/91/99 127/90/99
f 22/109/37 23/92/37 95/94/37
f 40/134/38 41/95/38 113/96/38
f 34/101/39 35/97/39 107/98/39
f 28/30/100 29/99/100 101/31/100
f 33/50/41 34/101/41 106/51/41
f 43/29/101 44/102/101 116/103/101
f 67/153/102 68/104/102 140/106/102
f 60/42/44 61/107/44 133/43/44
f 21/299/103 22/109/103 94/110/103
f 57/127/104 58/111/104 130/112/104
f 70/150/47 71/113/47 143/114/47
f 45/61/105 46/115/105 118/62/105
f 49/45/49 50/117/49 122/46/49
f 3/13/106 4/118/106 76/14/106
f 68/104/51 69/33/51 141/105/51
f 37/300/107 38/120/107 110/79/107
f 14/39/53 15/122/53 87/40/53
f 72/55/54 73/124/54 145/56/54
f 5/24/55 6/125/55 78/25/55
f 56/69/56 57/127/56 129/70/56
f 20/149/108 21/128/108 93/130/108
f 62/299/58 63/131/58 135/132/58
f 29/99/109 30/133/109 102/100/109
f 39/141/60 40/134/60 112/135/60
f 46/110/61 47/136/61 119/137/61
f 8/128/110 9/138/110 81/129/110
f 23/92/63 24/139/63 96/93/63
f 51/7/64 52/140/64 124/8/64
f 38/120/65 39/141/65 111/121/65
f 64/73/66 65/142/66 137/74/66
f 12/16/67 13/144/67 85/17/67
f 42/85/111 43/146/111 115/86/111
f 65/142/69 66/147/69 138/143/69
f 19/64/112 20/149/112 92/65/112
f 69/301/113 70/150/113 142/151/113
f 15/122/114 16/152/114 88/123/114
f 66/147/73 67/153/73 139/148/73
f 6/125/115 7/154/115 79/126/115
f 7/144/116 8/156/116 80/145/116
