# Blender v2.70 (sub 0) OBJ File: 'skybox.blend'
# www.blender.org
o mesa-obs-2
v -0.064649 0.000762 0.527318
v -0.062703 0.000762 0.526613
v -0.060989 0.000762 0.525674
v -0.059495 0.000762 0.524469
v -0.058210 0.000762 0.522964
v -0.057120 0.000762 0.521125
v -0.056216 0.000762 0.518920
v -0.055483 0.000762 0.516315
v -0.054486 0.000762 0.509771
v -0.054338 0.000762 0.482181
v -0.054882 0.000762 0.477661
v -0.055275 0.000762 0.475871
v -0.055760 0.000762 0.474340
v -0.056345 0.000762 0.473028
v -0.057038 0.000762 0.471894
v -0.057848 0.000762 0.470896
v -0.058782 0.000762 0.469995
v -0.060598 0.000762 0.468545
v -0.062555 0.000762 0.467391
v -0.064616 0.000762 0.466529
v -0.066743 0.000762 0.465957
v -0.068900 0.000762 0.465669
v -0.071049 0.000762 0.465663
v -0.073154 0.000762 0.465934
v -0.075178 0.000762 0.466480
v -0.077083 0.000762 0.467296
v -0.078832 0.000762 0.468378
v -0.080389 0.000762 0.469724
v -0.081716 0.000762 0.471328
v -0.082787 0.000762 0.473526
v -0.083726 0.000762 0.476778
v -0.084525 0.000762 0.480872
v -0.086126 0.000762 0.501435
v -0.085396 0.000762 0.515314
v -0.084735 0.000762 0.518516
v -0.083850 0.000762 0.520653
v -0.083009 0.000762 0.521711
v -0.081853 0.000762 0.522739
v -0.080437 0.000762 0.523719
v -0.077032 0.000762 0.525461
v -0.073217 0.000762 0.526788
v -0.069412 0.000762 0.527552
v -0.067646 0.000762 0.527676
v -0.066040 0.000762 0.527605
v -0.064649 0.019660 0.527318
v -0.062703 0.019660 0.526613
v -0.060989 0.019660 0.525674
v -0.059495 0.019660 0.524469
v -0.058210 0.019660 0.522964
v -0.057120 0.019660 0.521125
v -0.056216 0.019660 0.518920
v -0.055483 0.019660 0.516315
v -0.054486 0.019660 0.509771
v -0.054338 0.019660 0.482181
v -0.054882 0.019660 0.477661
v -0.055275 0.019660 0.475871
v -0.055760 0.019660 0.474340
v -0.056345 0.019660 0.473028
v -0.057038 0.019660 0.471894
v -0.057848 0.019660 0.470896
v -0.058782 0.019660 0.469995
v -0.060598 0.019660 0.468545
v -0.062555 0.019660 0.467391
v -0.064616 0.019660 0.466529
v -0.066743 0.019660 0.465957
v -0.068900 0.019660 0.465669
v -0.071049 0.019660 0.465663
v -0.073154 0.019660 0.465934
v -0.075178 0.019660 0.466480
v -0.077083 0.019660 0.467296
v -0.078832 0.019660 0.468378
v -0.080389 0.019660 0.469724
v -0.081716 0.019660 0.471328
v -0.082787 0.019660 0.473526
v -0.083726 0.019660 0.476778
v -0.084525 0.019660 0.480872
v -0.086126 0.019660 0.501435
v -0.085396 0.019660 0.515314
v -0.084735 0.019660 0.518516
v -0.083850 0.019660 0.520653
v -0.083009 0.019660 0.521711
v -0.081853 0.019660 0.522739
v -0.080437 0.019660 0.523719
v -0.077032 0.019660 0.525461
v -0.073217 0.019660 0.526788
v -0.069412 0.019660 0.527552
v -0.067646 0.019660 0.527676
v -0.066040 0.019660 0.527605
vt 0.359135 0.979747
vt 0.428844 0.994911
vt 0.020254 0.640866
vt 0.500000 0.000000
vt 0.428843 0.005089
vt 0.954816 0.292293
vt 1.000000 0.000000
vt 1.000000 1.000000
vt 0.000000 1.000000
vt 0.571157 0.994911
vt 0.000000 0.500000
vt 0.500000 1.000000
vt 0.707708 0.954816
vt 0.877875 0.827430
vt 0.640866 0.979746
vt 0.827430 0.877875
vt 0.770320 0.920627
vt 1.000000 0.500000
vt 0.920627 0.229680
vt 0.877875 0.172570
vt 0.979746 0.640866
vt 0.020254 0.359134
vt 0.954816 0.707707
vt 0.359134 0.020253
vt 0.172570 0.122125
vt 0.122126 0.172569
vt 0.994911 0.428843
vt 0.979747 0.359134
vt 0.045184 0.707708
vt 0.079373 0.770321
vt 0.122126 0.827431
vt 0.707708 0.045184
vt 0.994911 0.571157
vt 0.770321 0.079373
vt 0.571158 0.005089
vt 0.640867 0.020254
vt 0.045184 0.292292
vt 0.292293 0.045184
vt 0.229680 0.079373
vt 0.079373 0.229679
vt 0.005089 0.571158
vt 0.172570 0.877875
vt 0.292293 0.954816
vt 0.229680 0.920627
vt 0.827430 0.122125
vt 0.920627 0.770320
vt 0.005089 0.428842
vt 0.000000 0.000000
vn 0.000000 -1.000000 0.000000
vn 0.000000 1.000000 0.000000
vn 0.201660 0.000000 0.979456
vn -0.998617 0.000000 0.052565
vn 0.913410 0.000000 -0.407041
vn -0.260311 0.000000 -0.965525
vn 0.507997 0.000000 -0.861359
vn -0.127984 0.000000 -0.991776
vn -0.393750 0.000000 -0.919218
vn -0.664887 0.000000 0.746944
vn 0.962659 0.000000 0.270716
vn 0.693981 0.000000 -0.719993
vn -0.898976 0.000000 -0.437997
vn 0.760463 0.000000 0.649382
vn 0.259947 0.000000 -0.965623
vn -0.979361 0.000000 0.202117
vn 0.988598 0.000000 0.150578
vn -0.070417 0.000000 0.997518
vn -0.782662 0.000000 0.622447
vn -0.653855 0.000000 -0.756620
vn 0.999985 0.000000 0.005386
vn 0.385754 0.000000 -0.922602
vn -0.328434 0.000000 0.944527
vn 0.776351 0.000000 -0.630301
vn -0.996982 0.000000 -0.077637
vn 0.044536 0.000000 0.999008
vn 0.624037 0.000000 -0.781395
vn -0.196887 0.000000 0.980426
vn 0.132177 0.000000 -0.991226
vn -0.923895 0.000000 0.382647
vn -0.455403 0.000000 0.890285
vn 0.853334 0.000000 -0.521365
vn -0.569060 0.000000 0.822296
vn 0.627982 0.000000 0.778228
vn -0.960734 0.000000 -0.277471
vn 0.925156 0.000000 0.379587
vn 0.953332 0.000000 -0.301924
vn 0.340720 0.000000 0.940165
vn -0.770579 0.000000 -0.637345
vn -0.526186 0.000000 -0.850369
vn 0.976723 0.000000 -0.214506
vn 0.480335 0.000000 0.877085
vn 0.002889 0.000000 -0.999996
vn 0.992824 0.000000 -0.119588
vn -0.981510 0.000000 -0.191410
vn 0.860386 0.000000 0.509642
vn 0.000000 1.000000 0.000004
vn 0.000000 -1.000000 0.000001
vn 0.000000 1.000000 0.000001
vn -0.998618 0.000000 0.052564
vn 0.000000 1.000000 -0.000005
vn 0.000000 1.000000 0.000003
vn 0.000000 1.000000 0.000002
vn 0.201593 0.000000 0.979469
vn 0.000000 1.000000 -0.000001
vn 0.000000 1.000000 -0.000002
vn 0.000000 1.000000 -0.000004
vn 0.913399 0.000000 -0.407066
vn -0.127938 0.000000 -0.991782
vn -0.393710 0.000000 -0.919235
vn -0.664923 0.000000 0.746912
vn 0.962662 0.000000 0.270706
vn 0.259989 0.000000 -0.965612
vn -0.979364 0.000000 0.202105
vn -0.653882 0.000000 -0.756596
vn 0.999986 0.000000 0.005386
vn 0.385792 0.000000 -0.922586
vn -0.328456 0.000000 0.944519
vn 0.044597 0.000000 0.999005
vn -0.196911 0.000000 0.980421
vn 0.132221 0.000000 -0.991220
vn -0.923888 0.000000 0.382662
vn -0.569021 0.000000 0.822323
vn -0.960732 0.000000 -0.277479
vn 0.925144 0.000000 0.379616
vn -0.526152 0.000000 -0.850391
vn 0.976725 0.000000 -0.214495
vn 0.480374 0.000000 0.877064
vn 0.002843 0.000000 -0.999996
vn 0.992823 0.000000 -0.119591
vn -0.981509 0.000000 -0.191415
vn 0.860374 0.000000 0.509663
s off
f 43/1/1 42/2/1 6/3/1
f 63/4/2 64/5/2 55/6/2
f 1/7/3 45/8/3 88/9/3
f 34/7/4 78/8/4 77/9/4
f 14/7/5 58/8/5 57/9/5
f 25/7/6 69/8/6 68/9/6
f 19/7/7 63/8/7 62/9/7
f 24/7/8 68/8/8 67/9/8
f 26/7/9 70/8/9 69/9/9
f 38/7/10 82/8/10 81/9/10
f 8/7/11 52/8/11 51/9/11
f 17/7/12 61/8/12 60/9/12
f 30/7/13 74/8/13 73/9/13
f 5/7/14 49/8/14 48/9/14
f 21/7/15 65/8/15 64/9/15
f 35/7/16 79/8/16 78/9/16
f 9/7/17 53/8/17 52/9/17
f 43/7/18 87/8/18 86/9/18
f 37/7/19 81/8/19 80/9/19
f 28/7/20 72/8/20 71/9/20
f 10/7/21 54/8/21 53/9/21
f 20/7/22 64/8/22 63/9/22
f 41/7/23 85/8/23 84/9/23
f 16/7/24 60/8/24 59/9/24
f 33/7/25 77/8/25 76/9/25
f 44/7/26 88/8/26 87/9/26
f 18/7/27 62/8/27 61/9/27
f 42/7/28 86/8/28 85/9/28
f 22/7/29 66/8/29 65/9/29
f 36/7/30 80/8/30 79/9/30
f 40/7/31 84/8/31 83/9/31
f 15/7/32 59/8/32 58/9/32
f 39/7/33 83/8/33 82/9/33
f 4/7/34 48/8/34 47/9/34
f 31/7/35 75/8/35 74/9/35
f 7/7/36 51/8/36 50/9/36
f 13/7/37 57/8/37 56/9/37
f 2/7/38 46/8/38 45/9/38
f 29/7/39 73/8/39 72/9/39
f 27/7/40 71/8/40 70/9/40
f 12/7/41 56/8/41 55/9/41
f 3/7/42 47/8/42 46/9/42
f 23/7/43 67/8/43 66/9/43
f 11/7/44 55/8/44 54/9/44
f 32/7/45 76/8/45 75/9/45
f 6/7/46 50/8/46 49/9/46
f 40/10/1 8/11/1 41/12/1
f 38/13/1 35/14/1 39/15/1
f 36/16/1 35/14/1 37/17/1
f 30/18/1 26/19/1 25/20/1
f 32/21/1 10/22/1 33/23/1
f 17/24/1 14/25/1 13/26/1
f 30/18/1 29/27/1 28/28/1
f 26/19/1 30/18/1 27/6/1
f 5/29/1 4/30/1 3/31/1
f 22/32/1 31/33/1 23/34/1
f 20/35/1 31/33/1 21/36/1
f 18/5/1 11/37/1 19/4/1
f 16/38/1 14/25/1 17/24/1
f 16/38/1 15/39/1 14/25/1
f 12/40/1 17/24/1 13/26/1
f 49/23/47 46/16/47 47/14/47
f 31/33/1 11/37/1 32/21/1
f 6/3/1 42/2/1 7/41/1
f 11/37/1 10/22/1 32/21/1
f 2/42/1 5/29/1 3/31/1
f 44/43/48 43/1/48 1/44/48
f 43/1/1 2/42/1 1/44/1
f 30/18/1 25/20/1 31/33/1
f 25/20/1 24/45/1 31/33/1
f 8/11/1 7/41/1 41/12/1
f 2/42/1 6/3/1 5/29/1
f 31/33/1 24/45/1 23/34/1
f 7/41/1 42/2/1 41/12/1
f 30/18/1 28/28/1 27/6/1
f 34/46/1 40/10/1 39/15/1
f 35/14/1 34/46/1 39/15/1
f 86/10/49 51/33/49 85/12/49
f 31/33/1 22/32/1 21/36/1
f 9/47/1 8/11/1 34/46/1
f 11/37/1 20/35/1 19/4/1
f 35/14/1 38/13/1 37/17/1
f 11/37/1 31/33/1 20/35/1
f 34/46/1 8/11/1 40/10/1
f 18/5/1 17/24/1 12/40/1
f 12/40/1 11/37/1 18/5/1
f 33/23/1 10/22/1 9/47/1
f 33/23/1 9/47/1 34/46/1
f 2/42/1 43/1/1 6/3/1
f 46/16/2 87/15/2 45/17/2
f 48/46/2 49/23/2 47/14/2
f 50/21/2 46/16/2 49/23/2
f 55/6/2 56/19/2 62/35/2
f 54/28/2 77/29/2 53/27/2
f 75/41/49 66/38/49 67/39/49
f 60/32/2 61/36/2 58/45/2
f 58/45/2 59/34/2 60/32/2
f 62/35/2 56/19/2 61/36/2
f 33/48/50 34/7/50 77/9/50
f 66/38/2 75/41/2 65/24/2
f 68/25/2 75/41/2 67/39/2
f 70/40/2 74/11/2 69/26/2
f 72/22/51 74/11/51 71/37/51
f 72/22/52 73/47/52 74/11/52
f 63/4/49 55/6/49 62/35/49
f 52/18/2 53/27/2 78/30/2
f 74/11/53 70/40/53 71/37/53
f 82/43/2 79/31/2 81/44/2
f 84/2/2 78/30/2 83/1/2
f 75/41/2 64/5/2 65/24/2
f 87/15/2 88/13/2 45/17/2
f 75/41/2 76/3/2 55/6/2
f 79/31/53 82/43/53 83/1/53
f 61/36/2 57/20/2 58/45/2
f 44/48/54 1/7/54 88/9/54
f 50/21/55 87/15/55 46/16/55
f 51/33/56 52/18/56 85/12/56
f 86/10/53 87/15/53 50/21/53
f 76/3/2 54/28/2 55/6/2
f 69/26/55 74/11/55 75/41/55
f 86/10/56 50/21/56 51/33/56
f 52/18/49 84/2/49 85/12/49
f 68/25/2 69/26/2 75/41/2
f 56/19/2 57/20/2 61/36/2
f 76/3/2 77/29/2 54/28/2
f 78/30/2 79/31/2 83/1/2
f 75/41/2 55/6/2 64/5/2
f 84/2/2 52/18/2 78/30/2
f 53/27/2 77/29/2 78/30/2
f 79/31/57 80/42/57 81/44/57
f 13/48/58 14/7/58 57/9/58
f 24/48/6 25/7/6 68/9/6
f 18/48/7 19/7/7 62/9/7
f 23/48/59 24/7/59 67/9/59
f 25/48/60 26/7/60 69/9/60
f 37/48/61 38/7/61 81/9/61
f 7/48/62 8/7/62 51/9/62
f 16/48/12 17/7/12 60/9/12
f 29/48/13 30/7/13 73/9/13
f 4/48/14 5/7/14 48/9/14
f 20/48/63 21/7/63 64/9/63
f 34/48/64 35/7/64 78/9/64
f 8/48/17 9/7/17 52/9/17
f 42/48/18 43/7/18 86/9/18
f 36/48/19 37/7/19 80/9/19
f 27/48/65 28/7/65 71/9/65
f 9/48/66 10/7/66 53/9/66
f 19/48/67 20/7/67 63/9/67
f 40/48/68 41/7/68 84/9/68
f 15/48/24 16/7/24 59/9/24
f 32/48/25 33/7/25 76/9/25
f 43/48/69 44/7/69 87/9/69
f 17/48/27 18/7/27 61/9/27
f 41/48/70 42/7/70 85/9/70
f 21/48/71 22/7/71 65/9/71
f 35/48/72 36/7/72 79/9/72
f 39/48/31 40/7/31 83/9/31
f 14/48/32 15/7/32 58/9/32
f 38/48/73 39/7/73 82/9/73
f 3/48/34 4/7/34 47/9/34
f 30/48/74 31/7/74 74/9/74
f 6/48/75 7/7/75 50/9/75
f 12/48/37 13/7/37 56/9/37
f 1/48/38 2/7/38 45/9/38
f 28/48/39 29/7/39 72/9/39
f 26/48/76 27/7/76 70/9/76
f 11/48/77 12/7/77 55/9/77
f 2/48/78 3/7/78 46/9/78
f 22/48/79 23/7/79 66/9/79
f 10/48/80 11/7/80 54/9/80
f 31/48/81 32/7/81 75/9/81
f 5/48/82 6/7/82 49/9/82
