# Blender v2.70 (sub 0) OBJ File: 'skybox.blend'
# www.blender.org
o mesa-outer
v 0.394032 0.000762 -0.521027
v 0.131890 0.000762 -0.521027
v 0.134453 0.000762 -0.491328
v 0.136333 0.000762 -0.482091
v 0.137578 0.000762 -0.478755
v 0.153767 0.000762 -0.463707
v 0.139057 0.000762 -0.476186
v 0.139891 0.000762 -0.475168
v 0.141874 0.000762 -0.473182
v 0.144204 0.000762 -0.471233
v 0.149777 0.000762 -0.467506
v 0.156358 0.000762 -0.464104
v 0.342297 0.000762 -0.401048
v 0.344788 0.000762 -0.399543
v 0.346939 0.000762 -0.397024
v 0.348764 0.000762 -0.393291
v 0.350277 0.000762 -0.388142
v 0.352431 0.000762 -0.372787
v 0.351364 0.000762 -0.181088
v 0.339059 0.000762 -0.170053
v 0.336746 0.000762 -0.167461
v 0.335907 0.000762 -0.166262
v 0.335263 0.000762 -0.165091
v 0.334803 0.000762 -0.163920
v 0.334514 0.000762 -0.162721
v 0.334384 0.000762 -0.161466
v 0.334402 0.000762 -0.160129
v 0.334554 0.000762 -0.158680
v 0.335100 0.000762 -0.155890
v 0.336030 0.000762 -0.153130
v 0.339134 0.000762 -0.146733
v 0.343304 0.000762 -0.140203
v 0.352697 0.000762 -0.128564
v 0.347364 0.000762 0.346817
v 0.329988 0.000762 0.389983
v 0.317828 0.000762 0.412615
v 0.303567 0.000762 0.434318
v 0.269334 0.000762 0.474432
v 0.228482 0.000762 0.509317
v 0.182204 0.000762 0.537966
v 0.131693 0.000762 0.559372
v 0.074022 0.000762 0.574776
v -0.293012 0.000762 0.572001
v -0.321324 0.000762 0.569137
v -0.330347 0.000762 0.566886
v -0.337191 0.000762 0.563966
v -0.342791 0.000762 0.560281
v -0.358315 0.000762 0.546141
v -0.365825 0.000762 0.537862
v -0.372091 0.000762 0.528994
v -0.377438 0.000762 0.518938
v -0.382193 0.000762 0.507093
v -0.392061 0.000762 0.472185
v -0.396876 0.000762 0.443404
v -0.403327 0.000762 -0.521027
v -0.445995 0.000762 -0.521027
v -0.445995 0.000762 0.614769
v 0.394032 0.000762 0.614769
v 0.394032 0.038558 -0.521027
v 0.131890 0.038558 -0.521027
v 0.134453 0.038558 -0.491328
v 0.136333 0.038558 -0.482091
v 0.137578 0.038558 -0.478755
v 0.138287 0.038558 -0.477379
v 0.139057 0.038558 -0.476186
v 0.139891 0.038558 -0.475168
v 0.141874 0.038558 -0.473182
v 0.144204 0.038558 -0.471233
v 0.149777 0.038558 -0.467506
v 0.156358 0.038558 -0.464104
v 0.342297 0.038558 -0.401048
v 0.344788 0.038558 -0.399543
v 0.346939 0.038558 -0.397024
v 0.348764 0.038558 -0.393291
v 0.350277 0.038558 -0.388142
v 0.352431 0.038558 -0.372787
v 0.351364 0.038558 -0.181088
v 0.339059 0.038558 -0.170053
v 0.336746 0.038558 -0.167461
v 0.335907 0.038558 -0.166262
v 0.335263 0.038558 -0.165091
v 0.334803 0.038558 -0.163920
v 0.334514 0.038558 -0.162721
v 0.334384 0.038558 -0.161466
v 0.334402 0.038558 -0.160129
v 0.334554 0.038558 -0.158680
v 0.335100 0.038558 -0.155890
v 0.336030 0.038558 -0.153130
v 0.339134 0.038558 -0.146733
v 0.343304 0.038558 -0.140203
v 0.352697 0.038558 -0.128564
v 0.347364 0.038558 0.346817
v 0.329988 0.038558 0.389983
v 0.317828 0.038558 0.412615
v 0.303567 0.038558 0.434318
v 0.269334 0.038558 0.474432
v 0.228482 0.038558 0.509317
v 0.182204 0.038558 0.537966
v 0.131693 0.038558 0.559372
v 0.074022 0.038558 0.574776
v -0.293012 0.038558 0.572001
v -0.321324 0.038558 0.569137
v -0.330347 0.038558 0.566886
v -0.337191 0.038558 0.563966
v -0.342791 0.038558 0.560281
v -0.358315 0.038558 0.546141
v -0.365825 0.038558 0.537862
v -0.372091 0.038558 0.528994
v -0.377438 0.038558 0.518938
v -0.382193 0.038558 0.507093
v -0.392061 0.038558 0.472185
v -0.396876 0.038558 0.443404
v -0.403327 0.038558 -0.521027
v -0.445995 0.038558 -0.521027
v -0.445995 0.038558 0.614769
v 0.394032 0.038558 0.614769
vt 0.964488 0.314931
vt 0.757777 0.928429
vt 0.802587 0.898046
vt 0.913845 0.219407
vt 0.881081 0.176307
vt 0.058244 0.265795
vt 1.000000 0.000000
vt 1.000000 1.000000
vt 0.000000 1.000000
vt 0.913845 0.780594
vt 0.941756 0.734204
vt 0.981775 0.633764
vt 0.709945 0.953788
vt 0.843850 0.862998
vt 0.659651 0.973827
vt 0.964488 0.685069
vt 0.993413 0.580891
vt 0.999267 0.527069
vt 0.999267 0.472931
vt 0.981775 0.366236
vt 0.993413 0.419109
vt 0.843850 0.137002
vt 0.802587 0.101954
vt 0.018225 0.633763
vt 0.500000 1.000000
vt 0.006587 0.580890
vt 0.058244 0.734203
vt 0.445939 0.997069
vt 0.035511 0.685068
vt 0.118918 0.823692
vt 0.392514 0.988310
vt 0.086155 0.780593
vt 0.881081 0.823693
vt 0.197412 0.898046
vt 0.242222 0.928428
vt 0.290055 0.953787
vt 0.000733 0.527069
vt 0.941756 0.265796
vt 0.340348 0.973826
vt 0.156150 0.862997
vt 0.757777 0.071572
vt 0.709945 0.046212
vt 0.659651 0.026174
vt 0.554060 0.997069
vt 0.607486 0.011690
vt 0.554060 0.002931
vt 0.500000 0.000000
vt 0.445941 0.002931
vt 0.392515 0.011690
vt 0.340350 0.026173
vt 0.290056 0.046212
vt 0.242224 0.071571
vt 0.197413 0.101953
vt 0.156151 0.137002
vt 0.118919 0.176306
vt 0.086156 0.219406
vt 0.035512 0.314930
vt 0.018225 0.366235
vt 0.006587 0.419108
vt 0.000733 0.472930
vt 0.607485 0.988310
vt 0.000000 0.000000
vn 0.000000 -1.000000 0.000000
vn 0.000000 1.000000 0.000000
vn 0.882947 0.000000 -0.469472
vn -1.000000 0.000000 0.000000
vn 0.928032 0.000000 -0.372501
vn -0.999985 0.000000 -0.005564
vn -0.649388 0.000000 -0.760457
vn -0.840179 0.000000 0.542309
vn -0.819290 0.000000 -0.573380
vn -0.842791 0.000000 0.538241
vn -0.517183 0.000000 0.855875
vn -0.778200 0.000000 0.628017
vn 0.100644 0.000000 -0.994922
vn 0.740667 0.000000 -0.671872
vn -0.871992 -0.194683 0.449141
vn -0.947673 0.000000 0.319244
vn -0.760664 0.000000 -0.649146
vn -0.898410 0.000000 0.439158
vn 0.986293 0.000000 -0.165003
vn -0.927664 0.000000 -0.373417
vn -0.994497 0.000000 0.104760
vn -0.876337 0.000000 -0.481698
vn 0.962284 0.000000 -0.272048
vn -0.526370 0.000000 -0.850255
vn -0.773582 0.000000 0.633696
vn -0.994693 0.000000 -0.102890
vn -0.835709 0.000000 -0.549172
vn -0.459214 0.000000 0.888326
vn -0.959410 0.000000 0.282016
vn 0.000000 0.000000 1.000000
vn -0.555984 0.000000 0.831193
vn 0.816710 0.000000 -0.577049
vn -0.641605 0.000000 0.767035
vn -0.390196 0.000000 -0.920732
vn 0.000000 0.000000 -1.000000
vn 0.241998 0.000000 -0.970277
vn -0.996298 0.000000 0.085966
vn -0.979917 0.000000 0.199405
vn -0.746218 0.000000 -0.665702
vn 0.392467 0.000000 -0.919766
vn 1.000000 0.000000 0.000000
vn 0.673392 0.000000 -0.739285
vn 0.549625 0.000000 -0.835411
vn -0.930671 0.000000 -0.365856
vn -0.760441 0.000000 0.649407
vn -0.990312 0.000000 0.138863
vn -0.899693 0.000000 0.436522
vn -0.321154 0.000000 0.947027
vn -0.972137 0.000000 -0.234413
vn 0.007562 0.000000 -0.999971
vn -0.667636 0.000000 -0.744488
vn -0.999915 0.000000 0.013032
vn -0.936826 0.000000 0.349796
vn -0.258052 0.000000 -0.966131
vn -0.707527 0.000000 0.706686
vn 0.999978 0.000000 -0.006688
vn -0.981368 0.000000 0.192136
vn -0.999937 0.000000 -0.011219
vn -0.880906 0.000000 -0.473291
vn -0.000006 -1.000000 0.000002
vn -0.000004 -1.000000 0.000000
vn -0.000035 1.000000 0.000053
vn -0.000018 1.000000 0.000034
vn -0.000034 -1.000000 0.000036
vn 0.000000 -1.000000 -0.000001
vn -0.000004 -1.000000 0.000001
vn -0.000016 1.000000 0.000047
vn 0.000000 1.000000 0.000007
vn 0.000000 1.000000 -0.000001
vn 0.000000 1.000000 -0.000006
vn 0.000000 1.000000 0.000001
vn 0.000000 1.000000 0.000006
vn 0.000000 1.000000 -0.000002
vn 0.646871 -0.010889 -0.762522
vn -0.819284 0.000000 -0.573388
vn -0.842792 0.000000 0.538240
vn -0.517195 0.000000 0.855868
vn 0.100644 0.000000 -0.994923
vn -0.680829 0.000000 0.732442
vn -0.898409 0.000000 0.439158
vn 0.986293 0.000000 -0.165004
vn -0.994497 0.000000 0.104762
vn -0.876333 0.000000 -0.481706
vn -0.526368 0.000000 -0.850257
vn -0.773612 0.000000 0.633660
vn -0.994692 0.000000 -0.102892
vn -0.835710 0.000000 -0.549171
vn -0.459224 0.000000 0.888320
vn -0.555974 0.000000 0.831200
vn -0.390195 0.000000 -0.920732
vn -0.996298 0.000000 0.085967
vn -0.746221 0.000000 -0.665698
vn 0.392479 0.000000 -0.919761
vn 0.549615 0.000000 -0.835418
vn -0.930674 0.000000 -0.365850
vn -0.760448 0.000000 0.649399
vn -0.990312 0.000000 0.138864
vn -0.321155 0.000000 0.947027
vn -0.972138 0.000000 -0.234409
vn -0.667637 0.000000 -0.744487
vn -0.936822 0.000000 0.349805
vn -0.981369 0.000000 0.192134
s off
f 1/1/1 14/2/1 13/3/1
f 97/4/2 98/5/2 116/6/2
f 51/7/3 109/8/3 108/9/3
f 57/7/4 115/8/4 114/9/4
f 52/7/5 110/8/5 109/9/5
f 19/7/6 77/8/6 76/9/6
f 39/7/7 97/8/7 96/9/7
f 7/7/8 65/8/8 64/9/8
f 22/7/9 80/8/9 79/9/9
f 32/7/10 90/8/10 89/9/10
f 14/7/11 72/8/11 71/9/11
f 33/7/12 91/8/12 90/9/12
f 44/7/13 102/8/13 101/9/13
f 49/7/14 107/8/14 106/9/14
f 6/7/15 64/8/15 63/9/15
f 30/7/16 88/8/16 87/9/16
f 38/7/17 96/8/17 95/9/17
f 16/7/18 74/8/18 73/9/18
f 54/7/19 112/8/19 111/9/19
f 35/7/20 93/8/20 92/9/20
f 28/7/21 86/8/21 85/9/21
f 23/7/22 81/8/22 80/9/22
f 53/7/23 111/8/23 110/9/23
f 40/7/24 98/8/24 97/9/24
f 8/7/25 66/8/25 65/9/25
f 26/7/26 84/8/26 83/9/26
f 37/7/27 95/8/27 94/9/27
f 12/7/28 70/8/28 69/9/28
f 17/7/29 75/8/29 74/9/29
f 58/7/30 116/8/30 115/9/30
f 11/7/31 69/8/31 68/9/31
f 50/7/32 108/8/32 107/9/32
f 10/7/33 68/8/33 67/9/33
f 41/7/34 99/8/34 98/9/34
f 56/7/35 114/8/35 113/9/35
f 45/7/36 103/8/36 102/9/36
f 3/7/37 61/8/37 60/9/37
f 4/7/38 62/8/38 61/9/38
f 21/7/39 79/8/39 78/9/39
f 46/7/40 104/8/40 103/9/40
f 1/7/41 59/8/41 116/9/41
f 2/7/35 60/8/35 59/9/35
f 48/7/42 106/8/42 105/9/42
f 47/7/43 105/8/43 104/9/43
f 24/7/44 82/8/44 81/9/44
f 15/7/45 73/8/45 72/9/45
f 18/7/46 76/8/46 75/9/46
f 31/7/47 89/8/47 88/9/47
f 13/7/48 71/8/48 70/9/48
f 25/7/49 83/8/49 82/9/49
f 43/7/50 101/8/50 100/9/50
f 20/7/51 78/8/51 77/9/51
f 27/7/52 85/8/52 84/9/52
f 5/7/53 63/8/53 62/9/53
f 42/7/54 100/8/54 99/9/54
f 9/7/55 67/8/55 66/9/55
f 55/7/56 113/8/56 112/9/56
f 29/7/57 87/8/57 86/9/57
f 34/7/58 92/8/58 91/9/58
f 36/7/59 94/8/59 93/9/59
f 10/10/1 9/11/1 7/12/1
f 81/13/2 84/14/2 80/15/2
f 9/11/1 8/16/1 7/12/1
f 6/17/60 5/18/60 4/19/60
f 2/20/61 6/17/61 3/21/61
f 55/22/1 54/23/1 56/5/1
f 31/24/1 19/25/1 32/26/1
f 29/27/1 20/28/1 30/29/1
f 27/30/1 21/31/1 28/32/1
f 6/17/62 11/33/62 10/10/62
f 25/34/1 24/35/1 23/36/1
f 28/32/1 21/31/1 20/28/1
f 6/17/63 12/14/63 11/33/63
f 20/28/1 31/24/1 30/29/1
f 6/17/64 10/10/64 7/12/64
f 19/25/1 33/37/1 32/26/1
f 33/37/1 1/1/1 58/38/1
f 22/39/1 26/40/1 23/36/1
f 26/40/1 25/34/1 23/36/1
f 22/39/1 21/31/1 27/30/1
f 6/17/65 2/20/65 1/1/65
f 57/4/1 54/23/1 53/41/1
f 29/27/1 28/32/1 20/28/1
f 20/28/1 19/25/1 31/24/1
f 57/4/1 53/41/1 52/42/1
f 22/39/1 27/30/1 26/40/1
f 57/4/1 52/42/1 51/43/1
f 18/44/1 1/1/1 19/25/1
f 57/4/1 51/43/1 50/45/1
f 57/4/1 50/45/1 49/46/1
f 57/4/1 49/46/1 48/47/1
f 57/4/1 48/47/1 47/48/1
f 57/4/1 47/48/1 46/49/1
f 57/4/1 46/49/1 45/50/1
f 57/4/1 45/50/1 44/51/1
f 57/4/1 44/51/1 43/52/1
f 43/52/1 42/53/1 57/4/1
f 54/23/1 57/4/1 56/5/1
f 58/38/1 42/53/1 41/54/1
f 58/38/1 41/54/1 40/55/1
f 58/38/1 40/55/1 39/56/1
f 58/38/1 39/56/1 38/6/1
f 58/38/1 38/6/1 37/57/1
f 58/38/1 37/57/1 36/58/1
f 58/38/1 36/58/1 35/59/1
f 58/38/1 35/59/1 34/60/1
f 34/60/1 33/37/1 58/38/1
f 1/1/1 33/37/1 19/25/1
f 6/17/66 4/19/66 3/21/66
f 1/1/1 18/44/1 17/61/1
f 1/1/1 17/61/1 16/15/1
f 1/1/1 16/15/1 15/13/1
f 1/1/1 15/13/1 14/2/1
f 79/61/2 86/10/2 78/44/2
f 6/17/1 1/1/1 13/3/1
f 13/3/67 12/14/67 6/17/67
f 42/53/1 58/38/1 57/4/1
f 81/13/2 82/2/2 83/3/2
f 56/62/4 57/7/4 114/9/4
f 81/13/68 83/3/68 84/14/68
f 89/12/2 78/44/2 88/16/2
f 91/18/2 77/25/2 90/17/2
f 112/53/2 113/54/2 114/55/2
f 69/30/69 70/40/69 61/59/69
f 63/37/2 67/27/2 62/60/2
f 65/24/2 66/29/2 64/26/2
f 67/27/70 63/37/70 66/29/70
f 69/30/71 61/59/71 68/32/71
f 71/34/2 59/57/2 70/40/2
f 86/10/2 87/11/2 78/44/2
f 66/29/72 63/37/72 64/26/72
f 78/44/2 87/11/2 88/16/2
f 112/53/2 114/55/2 115/56/2
f 79/61/71 85/33/71 86/10/71
f 85/33/73 79/61/73 80/15/73
f 84/14/2 85/33/2 80/15/2
f 67/27/2 68/32/2 62/60/2
f 70/40/2 60/58/2 61/59/2
f 111/52/2 112/53/2 115/56/2
f 68/32/2 61/59/2 62/60/2
f 77/25/2 89/12/2 90/17/2
f 110/51/2 111/52/2 115/56/2
f 59/57/2 76/28/2 77/25/2
f 91/18/2 59/57/2 77/25/2
f 109/50/2 110/51/2 115/56/2
f 59/57/69 71/34/69 72/35/69
f 108/49/2 109/50/2 115/56/2
f 59/57/2 72/35/2 73/36/2
f 107/48/2 108/49/2 115/56/2
f 59/57/2 73/36/2 74/39/2
f 106/47/2 107/48/2 115/56/2
f 59/57/2 74/39/2 75/31/2
f 105/46/2 106/47/2 115/56/2
f 59/57/2 75/31/2 76/28/2
f 104/45/2 105/46/2 115/56/2
f 59/57/2 60/58/2 70/40/2
f 103/43/2 104/45/2 115/56/2
f 89/12/2 77/25/2 78/44/2
f 102/42/69 103/43/69 115/56/69
f 116/6/2 91/18/2 92/19/2
f 101/41/71 102/42/71 115/56/71
f 116/6/2 92/19/2 93/21/2
f 100/23/2 101/41/2 115/56/2
f 116/6/2 93/21/2 94/20/2
f 100/23/2 115/56/2 116/6/2
f 116/6/2 94/20/2 95/1/2
f 99/22/71 100/23/71 116/6/71
f 116/6/2 95/1/2 96/38/2
f 98/5/2 99/22/2 116/6/2
f 116/6/2 96/38/2 97/4/2
f 50/62/3 51/7/3 108/9/3
f 91/18/2 116/6/2 59/57/2
f 51/62/5 52/7/5 109/9/5
f 18/62/6 19/7/6 76/9/6
f 38/62/7 39/7/7 96/9/7
f 6/62/74 7/7/74 64/9/74
f 21/62/75 22/7/75 79/9/75
f 31/62/76 32/7/76 89/9/76
f 13/62/77 14/7/77 71/9/77
f 32/62/12 33/7/12 90/9/12
f 43/62/78 44/7/78 101/9/78
f 48/62/14 49/7/14 106/9/14
f 5/62/79 6/7/79 63/9/79
f 29/62/16 30/7/16 87/9/16
f 37/62/17 38/7/17 95/9/17
f 15/62/80 16/7/80 73/9/80
f 53/62/81 54/7/81 111/9/81
f 34/62/20 35/7/20 92/9/20
f 27/62/82 28/7/82 85/9/82
f 22/62/83 23/7/83 80/9/83
f 52/62/23 53/7/23 110/9/23
f 39/62/84 40/7/84 97/9/84
f 7/62/85 8/7/85 65/9/85
f 25/62/86 26/7/86 83/9/86
f 36/62/87 37/7/87 94/9/87
f 11/62/88 12/7/88 69/9/88
f 16/62/29 17/7/29 74/9/29
f 57/62/30 58/7/30 115/9/30
f 10/62/89 11/7/89 68/9/89
f 49/62/32 50/7/32 107/9/32
f 9/62/33 10/7/33 67/9/33
f 40/62/90 41/7/90 98/9/90
f 55/62/35 56/7/35 113/9/35
f 44/62/36 45/7/36 102/9/36
f 2/62/91 3/7/91 60/9/91
f 3/62/38 4/7/38 61/9/38
f 20/62/92 21/7/92 78/9/92
f 45/62/93 46/7/93 103/9/93
f 58/62/41 1/7/41 116/9/41
f 1/62/35 2/7/35 59/9/35
f 47/62/42 48/7/42 105/9/42
f 46/62/94 47/7/94 104/9/94
f 23/62/95 24/7/95 81/9/95
f 14/62/96 15/7/96 72/9/96
f 17/62/97 18/7/97 75/9/97
f 30/62/47 31/7/47 88/9/47
f 12/62/98 13/7/98 70/9/98
f 24/62/99 25/7/99 82/9/99
f 42/62/50 43/7/50 100/9/50
f 19/62/100 20/7/100 77/9/100
f 26/62/52 27/7/52 84/9/52
f 4/62/101 5/7/101 62/9/101
f 41/62/54 42/7/54 99/9/54
f 8/62/55 9/7/55 66/9/55
f 54/62/56 55/7/56 112/9/56
f 28/62/102 29/7/102 86/9/102
f 33/62/58 34/7/58 91/9/58
f 35/62/59 36/7/59 93/9/59
