# Blender v2.70 (sub 0) OBJ File: 'skybox.blend'
# www.blender.org
o mesa-obs-4
v -0.216654 0.000762 0.521719
v -0.216321 0.000762 0.520808
v -0.215993 0.000762 0.519560
v -0.214092 0.000762 0.501149
v -0.214402 0.000762 0.481944
v -0.214987 0.000762 0.477561
v -0.215884 0.000762 0.474311
v -0.216462 0.000762 0.473016
v -0.217136 0.000762 0.471890
v -0.217909 0.000762 0.470896
v -0.218787 0.000762 0.469995
v -0.220603 0.000762 0.468545
v -0.222560 0.000762 0.467391
v -0.224621 0.000762 0.466529
v -0.226748 0.000762 0.465957
v -0.228905 0.000762 0.465669
v -0.231054 0.000762 0.465663
v -0.233159 0.000762 0.465934
v -0.235183 0.000762 0.466480
v -0.237088 0.000762 0.467296
v -0.238837 0.000762 0.468378
v -0.240394 0.000762 0.469724
v -0.241721 0.000762 0.471328
v -0.243066 0.000762 0.473960
v -0.244166 0.000762 0.477583
v -0.245022 0.000762 0.481989
v -0.245999 0.000762 0.492318
v -0.245999 0.000762 0.503280
v -0.245022 0.000762 0.513208
v -0.244166 0.000762 0.517265
v -0.243066 0.000762 0.520438
v -0.241721 0.000762 0.522519
v -0.240062 0.000762 0.523914
v -0.238068 0.000762 0.525034
v -0.235817 0.000762 0.525881
v -0.233385 0.000762 0.526459
v -0.230850 0.000762 0.526771
v -0.228288 0.000762 0.526818
v -0.225775 0.000762 0.526605
v -0.223390 0.000762 0.526133
v -0.221208 0.000762 0.525406
v -0.219307 0.000762 0.524426
v -0.217763 0.000762 0.523196
v -0.216654 0.019660 0.521719
v -0.216321 0.019660 0.520808
v -0.215993 0.019660 0.519560
v -0.214092 0.019660 0.501149
v -0.214402 0.019660 0.481944
v -0.214987 0.019660 0.477561
v -0.215884 0.019660 0.474311
v -0.216462 0.019660 0.473016
v -0.217136 0.019660 0.471890
v -0.217909 0.019660 0.470896
v -0.218787 0.019660 0.469995
v -0.220603 0.019660 0.468545
v -0.222560 0.019660 0.467391
v -0.224621 0.019660 0.466529
v -0.226748 0.019660 0.465957
v -0.228905 0.019660 0.465669
v -0.231054 0.019660 0.465663
v -0.233159 0.019660 0.465934
v -0.235183 0.019660 0.466480
v -0.237088 0.019660 0.467296
v -0.238837 0.019660 0.468378
v -0.240394 0.019660 0.469724
v -0.241721 0.019660 0.471328
v -0.243066 0.019660 0.473960
v -0.244166 0.019660 0.477583
v -0.245022 0.019660 0.481989
v -0.245999 0.019660 0.492318
v -0.245999 0.019660 0.503280
v -0.245022 0.019660 0.513208
v -0.244166 0.019660 0.517265
v -0.243066 0.019660 0.520438
v -0.241721 0.019660 0.522519
v -0.240062 0.019660 0.523914
v -0.238068 0.019660 0.525034
v -0.235817 0.019660 0.525881
v -0.233385 0.019660 0.526459
v -0.230850 0.019660 0.526771
v -0.228288 0.019660 0.526818
v -0.225775 0.019660 0.526605
v -0.223390 0.019660 0.526133
v -0.221208 0.019660 0.525406
v -0.219307 0.019660 0.524426
v -0.217763 0.019660 0.523196
vt 0.115676 0.819836
vt 0.166340 0.872386
vt 0.427199 0.994672
vt 0.500000 1.000000
vt 0.744709 0.063975
vt 1.000000 0.000000
vt 1.000000 1.000000
vt 0.000000 1.000000
vt 0.572801 0.994672
vt 0.255291 0.063975
vt 0.712228 0.952724
vt 0.321385 0.032992
vt 0.644050 0.978800
vt 0.833659 0.872386
vt 0.991683 0.409182
vt 0.775884 0.916999
vt 0.884324 0.819836
vt 0.926797 0.760470
vt 0.983742 0.626467
vt 0.960173 0.695552
vt 0.999666 0.481739
vt 0.997000 0.554686
vt 0.536498 0.001334
vt 0.194413 0.104252
vt 0.973220 0.338560
vt 0.805587 0.104252
vt 0.391285 0.011962
vt 0.859952 0.152963
vt 0.678616 0.032992
vt 0.608715 0.011962
vt 0.463503 0.001334
vt 0.140048 0.152963
vt 0.026780 0.338559
vt 0.093355 0.209070
vt 0.055329 0.271379
vt 0.944671 0.271379
vt 0.002999 0.554685
vt 0.000334 0.481739
vt 0.039827 0.695552
vt 0.016258 0.626466
vt 0.073203 0.760470
vt 0.224116 0.916999
vt 0.355950 0.978800
vt 0.287771 0.952724
vt 0.906645 0.209071
vt 0.008317 0.409181
vt 0.000000 0.000000
vn 0.000000 -1.000000 0.000000
vn 0.000000 1.000000 0.000000
vn 0.458123 0.000000 0.888889
vn 0.193957 0.000000 0.981010
vn -0.643415 0.000000 0.765517
vn -0.127938 0.000000 -0.991782
vn 0.999870 0.000000 -0.016133
vn -0.489700 0.000000 0.871891
vn -0.995549 0.000000 -0.094250
vn 0.002843 0.000000 -0.999996
vn -0.890505 0.000000 -0.454974
vn -0.978471 0.000000 0.206383
vn 0.316213 0.000000 0.948688
vn -0.840019 0.000000 0.542557
vn -1.000000 0.000000 0.000000
vn -0.121967 0.000000 0.992534
vn -0.260309 0.000000 -0.965525
vn -0.352349 0.000000 0.935869
vn 0.994710 0.000000 0.102722
vn 0.385749 0.000000 -0.922604
vn -0.018615 0.000000 0.999827
vn 0.939404 0.000000 0.342812
vn 0.623117 0.000000 0.782129
vn -0.526203 0.000000 -0.850359
vn 0.624037 0.000000 -0.781395
vn 0.967136 0.000000 0.254258
vn -0.995185 0.000000 0.098011
vn -0.231314 0.000000 0.972879
vn -0.981665 0.000000 -0.190614
vn -0.653880 0.000000 -0.756598
vn 0.799569 0.000000 0.600574
vn -0.956863 0.000000 -0.290539
vn 0.912967 0.000000 -0.408034
vn 0.789397 0.000000 -0.613883
vn 0.508000 0.000000 -0.861357
vn -0.770577 0.000000 -0.637347
vn 0.964008 0.000000 -0.265873
vn -0.393664 0.000000 -0.919254
vn 0.132175 0.000000 -0.991226
vn 0.715751 0.000000 -0.698356
vn 0.991204 0.000000 -0.132344
vn 0.858222 0.000000 -0.513279
vn 0.259993 0.000000 -0.965610
vn -0.944831 0.000000 0.327557
vn 0.084635 0.000000 0.996412
vn 0.000000 -1.000000 0.000001
vn 0.000000 1.000000 0.000002
vn 0.000000 1.000000 -0.000002
vn 0.000000 1.000000 0.000007
vn 0.000000 1.000000 0.000003
vn 0.000000 1.000000 -0.000006
vn 0.000000 1.000000 -0.000003
vn 0.000000 1.000000 0.000001
vn 0.000000 1.000000 -0.000001
vn 0.000000 1.000000 0.000004
vn 0.458160 0.000000 0.888870
vn -0.643362 0.000000 0.765562
vn -0.489634 0.000000 0.871928
vn 0.002889 0.000000 -0.999996
vn -0.260353 0.000000 -0.965514
vn -0.352350 0.000000 0.935869
vn 0.994710 0.000000 0.102721
vn 0.385787 0.000000 -0.922588
vn -0.018538 0.000000 0.999828
vn 0.939428 0.000000 0.342747
vn -0.526237 0.000000 -0.850338
vn 0.967141 0.000000 0.254239
vn -0.995185 0.000000 0.098010
vn -0.231277 0.000000 0.972888
vn -0.981666 0.000000 -0.190610
vn -0.653853 0.000000 -0.756622
vn 0.799608 0.000000 0.600522
vn -0.956865 0.000000 -0.290531
vn 0.912978 0.000000 -0.408008
vn 0.789338 0.000000 -0.613959
vn -0.770558 0.000000 -0.637370
vn 0.964010 0.000000 -0.265866
vn -0.393705 0.000000 -0.919237
vn 0.132131 0.000000 -0.991232
vn 0.991204 0.000000 -0.132341
vn -0.944828 0.000000 0.327566
s off
f 35/1/1 34/2/1 30/3/1
f 71/3/2 72/4/2 47/5/2
f 42/6/3 85/7/3 84/8/3
f 40/6/4 83/7/4 82/8/4
f 33/6/5 76/7/5 75/8/5
f 18/6/6 61/7/6 60/8/6
f 5/6/7 48/7/7 47/8/7
f 34/6/8 77/7/8 76/8/8
f 27/6/9 70/7/9 69/8/9
f 17/6/10 60/7/10 59/8/10
f 24/6/11 67/7/11 66/8/11
f 30/6/12 73/7/12 72/8/12
f 41/6/13 84/7/13 83/8/13
f 32/6/14 75/7/14 74/8/14
f 28/6/15 71/7/15 70/8/15
f 37/6/16 80/7/16 79/8/16
f 19/6/17 62/7/17 61/8/17
f 35/6/18 78/7/18 77/8/18
f 4/6/19 47/7/19 46/8/19
f 14/6/20 57/7/20 56/8/20
f 38/6/21 81/7/21 80/8/21
f 2/6/22 45/7/22 44/8/22
f 43/6/23 86/7/23 85/8/23
f 21/6/24 64/7/24 63/8/24
f 12/6/25 55/7/25 54/8/25
f 3/6/26 46/7/26 45/8/26
f 29/6/27 72/7/27 71/8/27
f 36/6/28 79/7/28 78/8/28
f 26/6/29 69/7/29 68/8/29
f 22/6/30 65/7/30 64/8/30
f 1/6/31 44/7/31 86/8/31
f 25/6/32 68/7/32 67/8/32
f 8/6/33 51/7/33 50/8/33
f 10/6/34 53/7/34 52/8/34
f 13/6/35 56/7/35 55/8/35
f 23/6/36 66/7/36 65/8/36
f 7/6/37 50/7/37 49/8/37
f 20/6/38 63/7/38 62/8/38
f 16/6/39 59/7/39 58/8/39
f 11/6/40 54/7/40 53/8/40
f 6/6/41 49/7/41 48/8/41
f 9/6/42 52/7/42 51/8/42
f 15/6/43 58/7/43 57/8/43
f 31/6/44 74/7/44 73/8/44
f 39/6/45 82/7/45 81/8/45
f 28/9/1 4/10/1 29/4/1
f 26/11/1 5/12/1 27/13/1
f 24/14/1 17/15/1 25/16/1
f 24/14/1 23/17/1 22/18/1
f 20/19/1 24/14/1 21/20/1
f 18/21/1 24/14/1 19/22/1
f 50/23/2 54/10/2 55/24/2
f 17/15/1 16/25/1 25/16/1
f 12/26/1 6/27/1 13/28/1
f 10/29/1 8/23/1 11/5/1
f 10/29/46 9/30/46 8/23/46
f 6/27/1 12/26/1 7/31/1
f 24/14/1 18/21/1 17/15/1
f 2/32/1 42/33/1 3/24/1
f 2/32/1 1/34/1 43/35/1
f 25/16/1 15/36/1 6/27/1
f 39/37/1 3/24/1 40/38/1
f 37/39/1 3/24/1 38/40/1
f 35/1/1 30/3/1 36/41/1
f 33/42/1 31/43/1 34/2/1
f 33/42/1 32/44/1 31/43/1
f 36/41/1 30/3/1 29/4/1
f 3/24/1 39/37/1 38/40/1
f 15/36/1 14/45/1 6/27/1
f 25/16/1 16/25/1 15/36/1
f 42/33/1 41/46/1 3/24/1
f 11/5/1 8/23/1 7/31/1
f 26/11/1 25/16/1 5/12/1
f 3/24/1 37/39/1 29/4/1
f 3/24/1 41/46/1 40/38/1
f 25/16/1 6/27/1 5/12/1
f 2/32/1 43/35/1 42/33/1
f 4/10/1 28/9/1 27/13/1
f 6/27/1 14/45/1 13/28/1
f 34/2/1 31/43/1 30/3/1
f 12/26/1 11/5/1 7/31/1
f 24/14/1 20/19/1 19/22/1
f 37/39/1 36/41/1 29/4/1
f 24/14/1 22/18/1 21/20/1
f 4/10/1 3/24/1 29/4/1
f 5/12/1 4/10/1 27/13/1
f 80/20/47 81/19/47 46/26/47
f 77/14/2 74/13/2 76/16/2
f 79/18/2 73/9/2 78/17/2
f 45/28/48 85/25/48 86/36/48
f 83/21/2 46/26/2 82/22/2
f 85/25/2 46/26/2 84/15/2
f 44/45/49 45/28/49 86/36/49
f 46/26/50 85/25/50 45/28/50
f 48/29/2 70/43/2 47/5/2
f 50/23/2 55/24/2 49/30/2
f 39/47/4 40/6/4 82/8/4
f 54/10/51 51/31/51 53/12/51
f 51/31/2 52/27/2 53/12/2
f 58/35/2 49/30/2 57/34/2
f 67/2/2 68/42/2 60/46/2
f 62/37/2 67/2/2 61/38/2
f 64/39/52 67/2/52 63/40/52
f 66/1/2 67/2/2 65/41/2
f 58/35/48 59/33/48 68/42/48
f 70/43/2 48/29/2 69/44/2
f 72/4/2 80/20/2 46/26/2
f 72/4/2 73/9/2 79/18/2
f 67/2/53 60/46/53 61/38/53
f 55/24/50 56/32/50 49/30/50
f 67/2/47 64/39/47 65/41/47
f 73/9/54 77/14/54 78/17/54
f 68/42/53 59/33/53 60/46/53
f 74/13/2 75/11/2 76/16/2
f 67/2/53 62/37/53 63/40/53
f 54/10/55 50/23/55 51/31/55
f 48/29/2 68/42/2 69/44/2
f 80/20/2 72/4/2 79/18/2
f 58/35/2 68/42/2 49/30/2
f 70/43/2 71/3/2 47/5/2
f 77/14/2 73/9/2 74/13/2
f 49/30/48 56/32/48 57/34/48
f 72/4/2 46/26/2 47/5/2
f 46/26/2 83/21/2 84/15/2
f 46/26/54 81/19/54 82/22/54
f 41/47/56 42/6/56 84/8/56
f 68/42/53 48/29/53 49/30/53
f 32/47/57 33/6/57 75/8/57
f 17/47/6 18/6/6 60/8/6
f 4/47/7 5/6/7 47/8/7
f 33/47/58 34/6/58 76/8/58
f 26/47/9 27/6/9 69/8/9
f 16/47/59 17/6/59 59/8/59
f 23/47/11 24/6/11 66/8/11
f 29/47/12 30/6/12 72/8/12
f 40/47/13 41/6/13 83/8/13
f 31/47/14 32/6/14 74/8/14
f 27/47/15 28/6/15 70/8/15
f 36/47/16 37/6/16 79/8/16
f 18/47/60 19/6/60 61/8/60
f 34/47/61 35/6/61 77/8/61
f 3/47/62 4/6/62 46/8/62
f 13/47/63 14/6/63 56/8/63
f 37/47/64 38/6/64 80/8/64
f 1/47/65 2/6/65 44/8/65
f 42/47/23 43/6/23 85/8/23
f 20/47/66 21/6/66 63/8/66
f 11/47/25 12/6/25 54/8/25
f 2/47/67 3/6/67 45/8/67
f 28/47/68 29/6/68 71/8/68
f 35/47/69 36/6/69 78/8/69
f 25/47/70 26/6/70 68/8/70
f 21/47/71 22/6/71 64/8/71
f 43/47/72 1/6/72 86/8/72
f 24/47/73 25/6/73 67/8/73
f 7/47/74 8/6/74 50/8/74
f 9/47/75 10/6/75 52/8/75
f 12/47/35 13/6/35 55/8/35
f 22/47/76 23/6/76 65/8/76
f 6/47/77 7/6/77 49/8/77
f 19/47/78 20/6/78 62/8/78
f 15/47/79 16/6/79 58/8/79
f 10/47/40 11/6/40 53/8/40
f 5/47/80 6/6/80 48/8/80
f 8/47/42 9/6/42 51/8/42
f 14/47/43 15/6/43 57/8/43
f 30/47/81 31/6/81 73/8/81
f 38/47/45 39/6/45 81/8/45
