# Blender v2.70 (sub 0) OBJ File: 'skybox.blend'
# www.blender.org
o obs-direita
v -0.270374 0.000762 -0.323373
v -0.269975 0.000762 -0.325278
v -0.269495 0.000762 -0.326700
v -0.268923 0.000762 -0.327906
v -0.267504 0.000762 -0.330238
v -0.265276 0.000762 -0.333249
v -0.264690 0.000762 -0.333894
v -0.263500 0.000762 -0.334542
v -0.261001 0.000762 -0.335512
v -0.119218 0.000762 -0.376003
v -0.117696 0.000762 -0.376619
v -0.116714 0.000762 -0.377123
v -0.116204 0.000762 -0.377534
v -0.116101 0.000762 -0.377872
v -0.116187 0.000762 -0.378170
v -0.118751 0.000762 -0.392329
v -0.118979 0.000762 -0.393066
v -0.119224 0.000762 -0.393616
v -0.119500 0.000762 -0.394003
v -0.119818 0.000762 -0.394249
v -0.120192 0.000762 -0.394377
v -0.120636 0.000762 -0.394411
v -0.121780 0.000762 -0.394287
v -0.269713 0.000762 -0.347879
v -0.271229 0.000762 -0.347080
v -0.273173 0.000762 -0.345708
v -0.275056 0.000762 -0.344043
v -0.276782 0.000762 -0.342189
v -0.278252 0.000762 -0.340249
v -0.279369 0.000762 -0.338326
v -0.279765 0.000762 -0.337404
v -0.279939 0.000762 -0.336455
v -0.280901 0.000762 -0.195247
v -0.271608 0.000762 -0.195247
v -0.270374 0.019660 -0.323373
v -0.269975 0.019660 -0.325278
v -0.269495 0.019660 -0.326700
v -0.268923 0.019660 -0.327906
v -0.267504 0.019660 -0.330238
v -0.265276 0.019660 -0.333249
v -0.264690 0.019660 -0.333894
v -0.263500 0.019660 -0.334542
v -0.261001 0.019660 -0.335512
v -0.119218 0.019660 -0.376003
v -0.117696 0.019660 -0.376619
v -0.116714 0.019660 -0.377123
v -0.116204 0.019660 -0.377534
v -0.116101 0.019660 -0.377872
v -0.116187 0.019660 -0.378170
v -0.118751 0.019660 -0.392329
v -0.118979 0.019660 -0.393066
v -0.119224 0.019660 -0.393616
v -0.119500 0.019660 -0.394003
v -0.119818 0.019660 -0.394249
v -0.120192 0.019660 -0.394377
v -0.120636 0.019660 -0.394411
v -0.121780 0.019660 -0.394287
v -0.269713 0.019660 -0.347879
v -0.271229 0.019660 -0.347080
v -0.273173 0.019660 -0.345708
v -0.275056 0.019660 -0.344043
v -0.276782 0.019660 -0.342189
v -0.278252 0.019660 -0.340249
v -0.279369 0.019660 -0.338326
v -0.279765 0.019660 -0.337404
v -0.279939 0.019660 -0.336455
v -0.280901 0.019660 -0.195247
v -0.271608 0.019660 -0.195247
vt 0.052419 0.722870
vt 0.500000 0.000000
vt 0.408125 0.008514
vt 0.899009 0.801317
vt 0.947582 0.722869
vt 1.000000 0.000000
vt 1.000000 1.000000
vt 0.000000 1.000000
vt 0.591875 0.991487
vt 0.500000 1.000000
vt 0.763216 0.925109
vt 0.680621 0.966236
vt 0.836848 0.869504
vt 0.591875 0.008513
vt 0.236785 0.925109
vt 0.319380 0.966236
vt 0.997867 0.546134
vt 0.997867 0.453866
vt 0.980913 0.363169
vt 0.899009 0.198683
vt 0.947582 0.277131
vt 0.763216 0.074891
vt 0.836848 0.130495
vt 0.100991 0.198683
vt 0.052418 0.277131
vt 0.019087 0.363169
vt 0.163153 0.869505
vt 0.019087 0.636832
vt 0.680621 0.033764
vt 0.100992 0.801318
vt 0.980913 0.636832
vt 0.408126 0.991487
vt 0.002133 0.453866
vt 0.163152 0.130496
vt 0.236784 0.074892
vt 0.319379 0.033764
vt 0.002133 0.546135
vt 0.000000 0.000000
vn 0.000000 -1.000000 0.000000
vn 0.000000 1.000000 0.000000
vn -0.732003 0.000000 -0.681301
vn 0.611594 0.000000 -0.791171
vn -0.465945 0.000000 -0.884814
vn 0.361875 0.000000 0.932227
vn -0.999977 0.000000 -0.006810
vn 0.955263 0.000000 -0.295758
vn -0.576761 0.000000 -0.816913
vn 0.854336 0.000000 0.519722
vn 0.274601 0.000000 0.961558
vn 0.956358 0.000000 0.292197
vn -0.796989 0.000000 -0.603994
vn 0.999954 0.000000 0.009633
vn 0.960795 0.000000 -0.277260
vn 0.000000 0.000000 1.000000
vn -0.662290 0.000000 -0.749248
vn 0.324871 0.000000 -0.945758
vn -0.864591 0.000000 -0.502476
vn 0.627656 0.000000 0.778491
vn 0.983992 0.000000 -0.178215
vn -0.983563 0.000000 -0.180563
vn -0.918972 0.000000 -0.394322
vn 0.903687 0.000000 0.428195
vn 0.375529 0.000000 0.926811
vn 0.978835 0.000000 0.204651
vn 0.803784 0.000000 0.594921
vn 0.947309 0.000000 0.320320
vn 0.478802 0.000000 0.877923
vn 0.739712 0.000000 0.672924
vn 0.913378 0.000000 -0.407112
vn -0.299329 0.000000 -0.954150
vn -0.107882 0.000000 -0.994164
vn 0.814561 0.000000 -0.580078
vn 0.456106 0.000000 0.889926
vn 0.076288 0.000000 -0.997086
vn 0.000000 1.000000 0.000001
vn 0.000000 1.000000 -0.000004
vn 0.000000 1.000000 0.000018
vn 0.611671 0.000000 -0.791112
vn 0.000000 1.000000 0.000002
vn 0.000000 1.000000 -0.000001
vn 0.000000 1.000000 -0.000006
vn -0.465922 0.000000 -0.884826
vn 0.361843 0.000000 0.932239
vn 0.955257 0.000000 -0.295776
vn -0.576760 0.000000 -0.816913
vn 0.854341 0.000000 0.519714
vn 0.274600 0.000000 0.961559
vn 0.956370 0.000000 0.292158
vn -0.796996 0.000000 -0.603985
vn 0.960783 0.000000 -0.277303
vn -0.864586 0.000000 -0.502486
vn 0.627610 0.000000 0.778528
vn -0.983565 0.000000 -0.180554
vn -0.918965 0.000000 -0.394340
vn 0.978836 0.000000 0.204646
vn 0.803780 0.000000 0.594927
vn 0.947316 0.000000 0.320300
vn 0.478858 0.000000 0.877892
vn 0.913351 0.000000 -0.407173
vn -0.107966 0.000000 -0.994155
vn 0.814526 0.000000 -0.580127
vn 0.456070 0.000000 0.889944
s off
f 29/1/1 6/2/1 5/3/1
f 62/4/2 63/5/2 40/2/2
f 28/6/3 62/7/3 61/8/3
f 20/6/4 54/7/4 53/8/4
f 25/6/5 59/7/5 58/8/5
f 9/6/6 43/7/6 42/8/6
f 33/6/7 67/7/7 66/8/7
f 17/6/8 51/7/8 50/8/8
f 26/6/9 60/7/9 59/8/9
f 5/6/10 39/7/10 38/8/10
f 10/6/11 44/7/11 43/8/11
f 14/6/12 48/7/12 47/8/12
f 29/6/13 63/7/13 62/8/13
f 1/6/14 35/7/14 68/8/14
f 15/6/15 49/7/15 48/8/15
f 34/6/16 68/7/16 67/8/16
f 27/6/17 61/7/17 60/8/17
f 21/6/18 55/7/18 54/8/18
f 30/6/19 64/7/19 63/8/19
f 13/6/20 47/7/20 46/8/20
f 16/6/21 50/7/21 49/8/21
f 32/6/22 66/7/22 65/8/22
f 31/6/23 65/7/23 64/8/23
f 4/6/24 38/7/24 37/8/24
f 11/6/25 45/7/25 44/8/25
f 2/6/26 36/7/26 35/8/26
f 6/6/27 40/7/27 39/8/27
f 3/6/28 37/7/28 36/8/28
f 8/6/29 42/7/29 41/8/29
f 7/6/30 41/7/30 40/8/30
f 18/6/31 52/7/31 51/8/31
f 24/6/32 58/7/32 57/8/32
f 23/6/33 57/7/33 56/8/33
f 19/6/34 53/7/34 52/8/34
f 12/6/35 46/7/35 45/8/35
f 22/6/36 56/7/36 55/8/36
f 22/9/1 17/5/1 23/10/1
f 20/11/1 18/4/1 21/12/1
f 20/11/1 19/13/1 18/4/1
f 7/14/1 26/15/1 25/16/1
f 15/17/1 14/18/1 13/19/1
f 11/20/1 15/17/1 12/21/1
f 9/22/1 23/10/1 10/23/1
f 1/24/1 34/25/1 33/26/1
f 7/14/1 6/2/1 27/27/1
f 29/1/1 5/3/1 30/28/1
f 22/9/1 18/4/1 17/5/1
f 8/29/1 7/14/1 25/16/1
f 15/17/1 13/19/1 12/21/1
f 6/2/1 28/30/1 27/27/1
f 15/17/1 10/23/1 16/31/1
f 8/29/1 25/16/1 24/32/1
f 60/11/2 41/3/2 59/12/2
f 18/4/1 22/9/1 21/12/1
f 11/20/1 10/23/1 15/17/1
f 9/22/1 24/32/1 23/10/1
f 6/2/1 29/1/1 28/30/1
f 1/24/1 32/33/1 2/34/1
f 9/22/1 8/29/1 24/32/1
f 10/23/1 23/10/1 16/31/1
f 2/34/1 32/33/1 3/35/1
f 17/5/1 16/31/1 23/10/1
f 3/35/1 32/33/1 4/36/1
f 32/33/1 31/37/1 30/28/1
f 4/36/1 32/33/1 5/3/1
f 57/10/2 43/35/2 44/34/2
f 7/14/1 27/27/1 26/15/1
f 5/3/1 32/33/1 30/28/1
f 1/24/1 33/26/1 32/33/1
f 63/5/37 39/14/37 40/2/37
f 64/31/2 39/14/2 63/5/2
f 64/31/38 65/17/38 66/18/38
f 68/21/2 35/20/2 67/19/2
f 45/24/2 49/37/2 44/34/2
f 47/26/2 49/37/2 46/25/2
f 47/26/38 48/33/38 49/37/38
f 49/37/2 45/24/2 46/25/2
f 53/27/2 55/16/2 52/30/2
f 53/27/39 54/15/39 55/16/39
f 57/10/2 58/9/2 43/35/2
f 42/36/2 58/9/2 59/12/2
f 66/18/2 39/14/2 64/31/2
f 19/38/40 20/6/40 53/8/40
f 66/18/2 37/22/2 38/29/2
f 61/13/2 41/3/2 60/11/2
f 51/1/41 56/32/41 57/10/41
f 44/34/2 49/37/2 50/28/2
f 35/20/42 36/23/42 66/18/42
f 52/30/2 55/16/2 56/32/2
f 61/13/2 62/4/2 40/2/2
f 66/18/37 36/23/37 37/22/37
f 57/10/2 44/34/2 50/28/2
f 66/18/2 38/29/2 39/14/2
f 35/20/2 66/18/2 67/19/2
f 51/1/43 52/30/43 56/32/43
f 41/3/37 42/36/37 59/12/37
f 50/28/2 51/1/2 57/10/2
f 41/3/2 61/13/2 40/2/2
f 27/38/3 28/6/3 61/8/3
f 43/35/2 58/9/2 42/36/2
f 24/38/44 25/6/44 58/8/44
f 8/38/45 9/6/45 42/8/45
f 32/38/7 33/6/7 66/8/7
f 16/38/46 17/6/46 50/8/46
f 25/38/47 26/6/47 59/8/47
f 4/38/48 5/6/48 38/8/48
f 9/38/49 10/6/49 43/8/49
f 13/38/50 14/6/50 47/8/50
f 28/38/51 29/6/51 62/8/51
f 34/38/14 1/6/14 68/8/14
f 14/38/52 15/6/52 48/8/52
f 33/38/16 34/6/16 67/8/16
f 26/38/17 27/6/17 60/8/17
f 20/38/18 21/6/18 54/8/18
f 29/38/53 30/6/53 63/8/53
f 12/38/54 13/6/54 46/8/54
f 15/38/21 16/6/21 49/8/21
f 31/38/55 32/6/55 65/8/55
f 30/38/56 31/6/56 64/8/56
f 3/38/24 4/6/24 37/8/24
f 10/38/25 11/6/25 44/8/25
f 1/38/57 2/6/57 35/8/57
f 5/38/58 6/6/58 39/8/58
f 2/38/59 3/6/59 36/8/59
f 7/38/60 8/6/60 41/8/60
f 6/38/30 7/6/30 40/8/30
f 17/38/61 18/6/61 51/8/61
f 23/38/32 24/6/32 57/8/32
f 22/38/62 23/6/62 56/8/62
f 18/38/63 19/6/63 52/8/63
f 11/38/64 12/6/64 45/8/64
f 21/38/36 22/6/36 55/8/36
