# Blender v2.70 (sub 0) OBJ File: 'skybox.blend'
# www.blender.org
o obs-dir
v -0.213459 0.000762 -0.130580
v -0.143736 0.000762 -0.244671
v -0.140253 0.000762 -0.253104
v -0.139690 0.000762 -0.256287
v -0.139908 0.000762 -0.260895
v -0.140559 0.000762 -0.263483
v -0.141046 0.000762 -0.264535
v -0.141668 0.000762 -0.265445
v -0.142447 0.000762 -0.266224
v -0.143404 0.000762 -0.266885
v -0.144562 0.000762 -0.267442
v -0.147564 0.000762 -0.268294
v -0.201447 0.000762 -0.268261
v -0.206307 0.000762 -0.267512
v -0.209749 0.000762 -0.265868
v -0.212672 0.000762 -0.263850
v -0.218583 0.000762 -0.258120
v -0.217080 0.000762 -0.129557
v -0.216875 0.000762 -0.129086
v -0.216698 0.000762 -0.129050
v -0.216252 0.000762 -0.129079
v -0.215707 0.000762 -0.129233
v -0.214443 0.000762 -0.129866
v -0.213459 0.019660 -0.130580
v -0.143736 0.019660 -0.244671
v -0.140253 0.019660 -0.253104
v -0.139690 0.019660 -0.256287
v -0.139908 0.019660 -0.260895
v -0.140559 0.019660 -0.263483
v -0.141046 0.019660 -0.264535
v -0.141668 0.019660 -0.265445
v -0.142447 0.019660 -0.266224
v -0.143404 0.019660 -0.266885
v -0.144562 0.019660 -0.267442
v -0.147564 0.019660 -0.268294
v -0.201447 0.019660 -0.268261
v -0.206307 0.019660 -0.267512
v -0.209749 0.019660 -0.265868
v -0.212672 0.019660 -0.263850
v -0.218583 0.019660 -0.258120
v -0.217080 0.019660 -0.129557
v -0.216875 0.019660 -0.129086
v -0.216698 0.019660 -0.129050
v -0.216252 0.019660 -0.129079
v -0.215707 0.019660 -0.129233
v -0.214443 0.019660 -0.129866
vt 0.321158 0.007466
vt 0.325401 0.003967
vt 0.336706 0.002554
vt 0.339144 0.042704
vt 0.358821 0.009996
vt 0.371646 0.005629
vt 1.000000 0.070171
vt 1.000000 0.107174
vt 0.838112 0.107174
vt 0.838112 0.019594
vt 1.000000 0.019594
vt 1.000000 0.032836
vt 0.838112 0.032836
vt 1.000000 0.055381
vt 0.838112 0.013964
vt 1.000000 0.013964
vt 0.676224 0.000000
vt 0.838112 0.000000
vt 0.838112 0.002482
vt 0.676224 0.686038
vt 0.838112 0.686038
vt 0.838112 0.704830
vt 0.676224 0.704830
vt 0.838112 0.728889
vt 0.676224 0.002482
vt 0.838112 0.632260
vt 0.676224 0.728889
vt 0.838112 0.982630
vt 0.676224 0.995425
vt 0.838112 0.995425
vt 0.838112 1.000000
vt 0.838112 0.055381
vt 0.838112 0.004253
vt 1.000000 0.004253
vt 1.000000 0.008879
vt 0.668359 0.693673
vt 0.668359 0.881286
vt 0.663998 0.881286
vt 0.676224 0.669103
vt 0.838112 0.669103
vt 0.663998 0.693673
vt 0.658458 0.881286
vt 0.658458 0.693673
vt 0.656097 0.881286
vt 0.654181 0.693673
vt 0.654181 0.881286
vt 0.653430 0.881286
vt 1.000000 0.000000
vt 0.676224 0.632260
vt 0.838112 0.008879
vt 0.676224 0.982631
vt 0.335090 0.000018
vt 0.335848 0.000204
vt 0.020709 0.683678
vt 0.015772 0.680861
vt 0.003721 0.663843
vt 0.285164 0.686827
vt 0.264319 0.690322
vt 0.299972 0.678822
vt 0.033534 0.688044
vt 0.018063 0.570611
vt 0.668951 0.692793
vt 0.674818 0.691119
vt 0.671288 0.693531
vt 0.008390 0.673633
vt 0.005762 0.669091
vt 0.011696 0.677534
vt 0.330839 0.000881
vt 0.002815 0.612315
vt 0.338112 0.640765
vt 0.333176 0.000142
vt 0.673960 0.693469
vt 0.673202 0.693655
vt 0.312569 0.668938
vt 0.000277 0.628088
vt 0.001032 0.650969
vt 0.659271 0.686208
vt 0.663513 0.689706
vt 0.340927 0.081358
vt 0.356175 0.123063
vt 0.338389 0.065585
vt 0.349808 0.016139
vt 0.353884 0.012813
vt 0.343874 0.024583
vt 0.346502 0.020041
vt 0.341833 0.029830
vt 0.676224 0.052909
vt 0.602431 0.003351
vt 0.623276 0.006846
vt 0.638084 0.014851
vt 0.650681 0.024735
vt 0.838112 0.070171
vt 0.676224 1.000000
vt 0.656097 0.693673
vt 0.653430 0.693673
vn 0.000000 -1.000000 0.000000
vn 0.000000 1.000000 -0.000000
vn 0.924281 0.000000 0.381712
vn 0.969748 0.000000 -0.244109
vn 0.998878 0.000000 -0.047366
vn 0.907864 0.000000 -0.419265
vn -0.917281 0.000000 0.398241
vn -0.431001 0.000000 -0.902352
vn -0.152232 0.000000 -0.988345
vn -0.999932 0.000000 0.011692
vn -0.000623 0.000000 -1.000000
vn 0.433510 0.000000 -0.901149
vn 0.984686 0.000000 0.174337
vn 0.707083 0.000000 -0.707131
vn 0.587103 0.000000 0.809512
vn -0.568157 0.000000 -0.822920
vn 0.448114 0.000000 0.893976
vn 0.271652 0.000000 0.962396
vn 0.853278 0.000000 0.521456
vn -0.198078 0.000000 0.980186
vn 0.568281 0.000000 -0.822834
vn -0.696006 0.000000 -0.718036
vn 0.065143 0.000000 0.997876
vn 0.825462 0.000000 -0.564458
vn 0.273073 0.000000 -0.961993
vn 0.000000 1.000000 -0.000009
vn 0.000000 1.000000 -0.000006
vn 0.000000 1.000000 0.000005
vn 0.924282 0.000000 0.381711
vn 0.000000 1.000000 0.000008
vn 0.000000 1.000000 -0.000001
vn 0.000000 1.000000 -0.000005
vn 0.000000 1.000000 0.000002
vn 0.998878 0.000000 -0.047367
vn -0.430990 0.000000 -0.902357
vn -0.000622 0.000000 -1.000000
vn 0.433447 0.000000 -0.901179
vn 0.984686 0.000000 0.174335
vn 0.707061 0.000000 -0.707153
vn 0.587130 0.000000 0.809493
vn -0.568166 0.000000 -0.822914
vn -0.696010 0.000000 -0.718033
vn 0.825433 0.000000 -0.564500
vn 0.273088 0.000000 -0.961989
s off
f 1/1/1 23/2/1 18/3/1
f 28/4/2 34/5/2 35/6/2
f 26/7/3 25/8/3 2/9/3
f 6/10/4 29/11/4 28/12/4
f 5/13/5 28/12/5 27/14/5
f 7/15/6 30/16/6 29/11/6
f 19/17/7 42/18/7 41/19/7
f 15/20/8 38/21/8 37/22/8
f 14/23/9 37/22/9 36/24/9
f 18/25/10 41/19/10 40/26/10
f 13/27/11 36/24/11 35/28/11
f 11/29/12 34/30/12 33/31/12
f 4/32/13 27/14/13 26/7/13
f 9/33/14 32/34/14 31/35/14
f 1/36/15 24/37/15 46/38/15
f 16/39/16 39/40/16 38/21/16
f 23/41/17 46/38/17 45/42/17
f 22/43/18 45/42/18 44/44/18
f 25/8/19 24/37/19 1/36/19
f 20/45/20 43/46/20 42/47/20
f 10/18/21 33/48/21 32/34/21
f 17/49/22 40/26/22 39/40/22
f 44/44/23 43/46/23 20/45/23
f 8/50/24 31/35/24 30/16/24
f 12/51/25 35/28/25 34/30/25
f 20/52/1 19/53/1 18/3/1
f 11/54/1 10/55/1 6/56/1
f 14/57/1 13/58/1 15/59/1
f 12/60/1 2/61/1 13/58/1
f 45/62/26 41/63/26 44/64/26
f 8/65/1 7/66/1 9/67/1
f 6/56/1 10/55/1 7/66/1
f 18/3/1 23/2/1 22/68/1
f 2/61/1 12/60/1 3/69/1
f 1/1/1 18/3/1 17/70/1
f 21/71/1 18/3/1 22/68/1
f 21/71/1 20/52/1 18/3/1
f 41/63/27 42/72/27 43/73/27
f 13/58/1 16/74/1 15/59/1
f 7/66/1 10/55/1 9/67/1
f 12/60/1 4/75/1 3/69/1
f 5/76/1 4/75/1 12/60/1
f 13/58/1 17/70/1 16/74/1
f 1/1/1 17/70/1 2/61/1
f 5/76/1 12/60/1 11/54/1
f 2/61/1 17/70/1 13/58/1
f 5/76/1 11/54/1 6/56/1
f 24/77/28 41/63/28 46/78/28
f 26/79/2 35/6/2 25/80/2
f 28/4/2 35/6/2 27/81/2
f 32/82/2 33/83/2 30/84/2
f 30/84/2 31/85/2 32/82/2
f 34/5/2 29/86/2 33/83/2
f 24/77/2 40/87/2 41/63/2
f 36/88/2 37/89/2 38/90/2
f 40/87/2 36/88/2 39/91/2
f 3/92/29 26/7/29 2/9/29
f 41/63/30 43/73/30 44/64/30
f 36/88/31 38/90/31 39/91/31
f 33/83/32 29/86/32 30/84/32
f 35/6/2 36/88/2 25/80/2
f 41/63/2 45/62/2 46/78/2
f 35/6/2 26/79/2 27/81/2
f 36/88/2 40/87/2 25/80/2
f 5/13/4 6/10/4 28/12/4
f 28/4/33 29/86/33 34/5/33
f 40/87/2 24/77/2 25/80/2
f 4/32/34 5/13/34 27/14/34
f 6/10/6 7/15/6 29/11/6
f 18/25/7 19/17/7 41/19/7
f 14/23/35 15/20/35 37/22/35
f 13/27/9 14/23/9 36/24/9
f 17/49/10 18/25/10 40/26/10
f 12/51/36 13/27/36 35/28/36
f 10/93/37 11/29/37 33/31/37
f 3/92/38 4/32/38 26/7/38
f 8/50/39 9/33/39 31/35/39
f 23/41/40 1/36/40 46/38/40
f 15/20/41 16/39/41 38/21/41
f 22/43/17 23/41/17 45/42/17
f 21/94/18 22/43/18 44/44/18
f 2/9/19 25/8/19 1/36/19
f 19/95/20 20/45/20 42/47/20
f 9/33/21 10/18/21 32/34/21
f 16/39/42 17/49/42 39/40/42
f 21/94/23 44/44/23 20/45/23
f 7/15/43 8/50/43 30/16/43
f 11/29/44 12/51/44 34/30/44
