# Blender v2.70 (sub 0) OBJ File: 'skybox.blend'
# www.blender.org
o paleta-esq_Mesh.010
v 0.107954 0.073920 -0.391752
v 0.107042 0.073920 -0.393129
v 0.105031 0.073920 -0.395507
v 0.102952 0.073920 -0.397391
v 0.017361 0.073920 -0.410749
v 0.017128 0.073920 -0.410754
v 0.016921 0.073920 -0.410720
v 0.016736 0.073920 -0.410641
v 0.016570 0.073920 -0.410512
v 0.016420 0.073920 -0.410330
v 0.016282 0.073920 -0.410089
v 0.016153 0.073920 -0.409785
v 0.015906 0.073920 -0.408970
v 0.015373 0.073920 -0.406225
v 0.015343 0.073920 -0.405826
v 0.015350 0.073920 -0.405485
v 0.015393 0.073920 -0.405195
v 0.015476 0.073920 -0.404948
v 0.015599 0.073920 -0.404737
v 0.015766 0.073920 -0.404555
v 0.015979 0.073920 -0.404393
v 0.016238 0.073920 -0.404245
v 0.016883 0.073920 -0.403970
v 0.096979 0.073920 -0.380943
v 0.098435 0.073920 -0.380713
v 0.099056 0.073920 -0.380690
v 0.099645 0.073920 -0.380727
v 0.100842 0.073920 -0.380966
v 0.104089 0.073920 -0.382120
v 0.105756 0.073920 -0.382961
v 0.106667 0.073920 -0.383551
v 0.106874 0.073920 -0.383722
v 0.107320 0.073920 -0.384203
v 0.107710 0.073920 -0.384746
v 0.108041 0.073920 -0.385342
v 0.108313 0.073920 -0.385980
v 0.108522 0.073920 -0.386651
v 0.108668 0.073920 -0.387345
v 0.108749 0.073920 -0.388053
v 0.108763 0.073920 -0.388765
v 0.108708 0.073920 -0.389471
v 0.108582 0.073920 -0.390161
v 0.108385 0.073920 -0.390826
v 0.107954 0.036124 -0.391752
v 0.107042 0.036124 -0.393129
v 0.105031 0.036124 -0.395507
v 0.102952 0.036124 -0.397391
v 0.017361 0.036124 -0.410749
v 0.017128 0.036124 -0.410754
v 0.016921 0.036124 -0.410720
v 0.016736 0.036124 -0.410641
v 0.016570 0.036124 -0.410512
v 0.016420 0.036124 -0.410330
v 0.016282 0.036124 -0.410089
v 0.016153 0.036124 -0.409785
v 0.015906 0.036124 -0.408970
v 0.015373 0.036124 -0.406225
v 0.015343 0.036124 -0.405826
v 0.015350 0.036124 -0.405485
v 0.015393 0.036124 -0.405195
v 0.015476 0.036124 -0.404948
v 0.015599 0.036124 -0.404737
v 0.015766 0.036124 -0.404555
v 0.015979 0.036124 -0.404393
v 0.016238 0.036124 -0.404245
v 0.016883 0.036124 -0.403970
v 0.096979 0.036124 -0.380943
v 0.098435 0.036124 -0.380713
v 0.099056 0.036124 -0.380690
v 0.099645 0.036124 -0.380727
v 0.100842 0.036124 -0.380966
v 0.104089 0.036124 -0.382120
v 0.105756 0.036124 -0.382961
v 0.106667 0.036124 -0.383551
v 0.106874 0.036124 -0.383722
v 0.107320 0.036124 -0.384203
v 0.107710 0.036124 -0.384746
v 0.108041 0.036124 -0.385342
v 0.108313 0.036124 -0.385980
v 0.108522 0.036124 -0.386651
v 0.108668 0.036124 -0.387345
v 0.108749 0.036124 -0.388053
v 0.108763 0.036124 -0.388765
v 0.108708 0.036124 -0.389471
v 0.108582 0.036124 -0.390161
v 0.108385 0.036124 -0.390826
vt 0.833659 0.872386
vt 0.884324 0.819836
vt 0.355950 0.978800
vt 0.073203 0.760470
vt 0.115676 0.819836
vt 0.712228 0.952724
vt 1.000000 0.000000
vt 1.000000 1.000000
vt 0.000000 1.000000
vt 0.427199 0.994672
vt 0.500000 1.000000
vt 0.572801 0.994672
vt 0.644050 0.978800
vt 0.775884 0.916999
vt 0.926797 0.760470
vt 0.287771 0.952724
vt 0.983742 0.626467
vt 0.906645 0.209071
vt 0.960173 0.695552
vt 0.999666 0.481739
vt 0.997000 0.554686
vt 0.991683 0.409182
vt 0.973220 0.338560
vt 0.944671 0.271379
vt 0.805587 0.104252
vt 0.224116 0.916999
vt 0.859952 0.152963
vt 0.002999 0.554685
vt 0.016258 0.626466
vt 0.678616 0.032992
vt 0.608715 0.011962
vt 0.536498 0.001334
vt 0.391285 0.011962
vt 0.463503 0.001334
vt 0.255291 0.063975
vt 0.321385 0.032992
vt 0.140048 0.152963
vt 0.194413 0.104252
vt 0.055329 0.271379
vt 0.093355 0.209070
vt 0.026780 0.338559
vt 0.008317 0.409181
vt 0.000334 0.481739
vt 0.039827 0.695552
vt 0.166340 0.872386
vt 0.744709 0.063975
vt 0.000000 0.000000
vn 0.000000 -1.000000 0.000000
vn 0.000000 1.000000 0.000001
vn 0.392444 0.000000 -0.919776
vn -0.920226 0.000000 -0.391388
vn 0.999838 0.000000 -0.017985
vn -0.543625 0.000000 -0.839328
vn 0.948284 0.000000 -0.317423
vn -0.024927 0.000000 0.999689
vn -0.978565 0.000000 -0.205939
vn 0.156217 0.000000 -0.987723
vn -0.954507 0.000000 -0.298189
vn -0.637242 0.000000 -0.770664
vn -0.906921 0.000000 0.421301
vn 0.496223 0.000000 -0.868195
vn -0.763631 0.000000 0.645652
vn -0.833518 0.000000 0.552493
vn -0.873806 0.000000 -0.486274
vn 0.920026 0.000000 0.391858
vn -0.983854 0.000000 0.178970
vn 0.981641 0.000000 0.190740
vn 0.605996 0.000000 -0.795468
vn 0.772058 0.000000 0.635552
vn 0.163747 0.000000 0.986502
vn 0.035668 0.000000 -0.999364
vn 0.393796 0.000000 0.919198
vn 0.957089 0.000000 0.289793
vn -0.958442 0.000000 0.285288
vn -0.334809 0.000000 -0.942286
vn 0.737791 0.000000 -0.675029
vn 0.862387 0.000000 -0.506250
vn -0.195965 0.000000 -0.980611
vn -0.450460 0.000000 -0.892797
vn 0.276298 0.000000 -0.961072
vn 0.612569 0.000000 0.790417
vn 0.867654 0.000000 0.497169
vn -0.993539 0.000000 -0.113494
vn -0.061811 0.000000 -0.998088
vn -0.996980 0.000000 0.077657
vn -0.812517 0.000000 -0.582937
vn 0.989003 0.000000 -0.147894
vn 0.997345 0.000000 0.072822
vn -0.733157 0.000000 -0.680059
vn -0.999812 0.000000 -0.019416
vn -0.154200 0.000000 0.988040
vn -0.671390 0.000000 0.741105
vn 0.000000 -1.000000 -0.000155
vn 0.000000 -1.000000 0.000069
vn 0.000000 -1.000000 -0.000395
vn 0.000000 -1.000000 -0.000001
vn 0.000000 -1.000000 -0.000035
vn 0.000000 -1.000000 0.000027
vn 0.000000 -1.000000 -0.000031
vn 0.000000 -1.000000 0.000075
vn 0.000000 1.000000 0.000000
vn 0.000000 -1.000000 0.000002
vn 0.000000 -1.000000 -0.000022
vn 0.000000 -1.000000 -0.000069
vn 0.000000 -1.000000 0.000007
vn 0.000000 -1.000000 0.000001
vn 0.000000 -1.000000 0.000106
vn 0.000000 -1.000000 0.000004
vn 0.000000 -1.000000 -0.000008
vn 0.000000 -1.000000 -0.000007
vn 0.000000 -1.000000 -0.000010
vn 0.000000 -1.000000 -0.000009
vn 0.000000 -1.000000 0.000016
vn 0.000000 -1.000000 -0.000005
vn 0.000000 1.000000 0.000016
vn 0.000000 1.000000 0.000008
vn 0.000000 1.000000 -0.000020
vn -0.920237 0.000000 -0.391363
vn 0.000000 1.000000 -0.000090
vn 0.000000 1.000000 0.000083
vn 0.000000 1.000000 -0.000043
vn 0.000000 1.000000 0.000004
vn 0.000000 1.000000 -0.000002
vn 0.000000 1.000000 -0.000001
vn 0.000000 1.000000 0.000021
vn 0.392503 0.000000 -0.919751
vn 0.000000 1.000000 0.000010
vn -0.543593 0.000000 -0.839349
vn -0.024716 0.000000 0.999695
vn -0.978562 0.000000 -0.205953
vn 0.156282 0.000000 -0.987712
vn -0.637350 0.000000 -0.770574
vn -0.906938 0.000000 0.421264
vn -0.763638 0.000000 0.645645
vn -0.873772 0.000000 -0.486336
vn 0.920049 0.000000 0.391804
vn -0.983852 0.000000 0.178983
vn 0.163290 0.000000 0.986578
vn 0.393795 0.000000 0.919198
vn 0.957094 0.000000 0.289777
vn -0.334797 0.000000 -0.942290
vn 0.862438 0.000000 -0.506163
vn -0.196042 0.000000 -0.980595
vn -0.450481 0.000000 -0.892786
vn 0.276299 0.000000 -0.961072
vn 0.612715 0.000000 0.790304
vn 0.867566 0.000000 0.497322
vn -0.993537 0.000000 -0.113509
vn -0.996980 0.000000 0.077663
vn -0.812492 0.000000 -0.582972
vn 0.989011 0.000000 -0.147845
vn -0.999811 0.000000 -0.019415
vn -0.671370 0.000000 0.741122
s off
f 15/1/1 14/2/1 22/3/1
f 56/4/2 57/5/2 66/6/2
f 23/7/3 66/8/3 65/9/3
f 36/7/4 79/8/4 78/9/4
f 16/7/5 59/8/5 58/9/5
f 31/7/6 74/8/6 73/9/6
f 18/7/7 61/8/7 60/9/7
f 6/7/8 49/8/8 48/9/8
f 38/7/9 81/8/9 80/9/9
f 25/7/10 68/8/10 67/9/10
f 37/7/11 80/8/11 79/9/11
f 32/7/12 75/8/12 74/9/12
f 1/7/13 44/8/13 86/9/13
f 22/7/14 65/8/14 64/9/14
f 3/7/15 46/8/15 45/9/15
f 2/7/16 45/8/16 44/9/16
f 35/7/17 78/8/17 77/9/17
f 12/7/18 55/8/18 54/9/18
f 42/7/19 85/8/19 84/9/19
f 14/7/20 57/8/20 56/9/20
f 21/7/21 64/8/21 63/9/21
f 10/7/22 53/8/22 52/9/22
f 7/7/23 50/8/23 49/9/23
f 26/7/24 69/8/24 68/9/24
f 8/7/25 51/8/25 50/9/25
f 13/7/26 56/8/26 55/9/26
f 43/7/27 86/8/27 85/9/27
f 29/7/28 72/8/28 71/9/28
f 20/7/29 63/8/29 62/9/29
f 19/7/30 62/8/30 61/9/30
f 28/7/31 71/8/31 70/9/31
f 30/7/32 73/8/32 72/9/32
f 24/7/33 67/8/33 66/9/33
f 9/7/34 52/8/34 51/9/34
f 11/7/35 54/8/35 53/9/35
f 39/7/36 82/8/36 81/9/36
f 27/7/37 70/8/37 69/9/37
f 41/7/38 84/8/38 83/9/38
f 34/7/39 77/8/39 76/9/39
f 17/7/40 60/8/40 59/9/40
f 15/7/41 58/8/41 57/9/41
f 33/7/42 76/8/42 75/9/42
f 40/7/43 83/8/43 82/9/43
f 5/7/44 48/8/44 47/9/44
f 4/7/45 47/8/45 46/9/45
f 21/10/46 20/11/46 19/12/46
f 19/12/47 18/13/47 17/6/47
f 15/1/1 22/3/1 16/14/1
f 13/15/1 23/16/1 14/2/1
f 11/17/1 5/18/1 12/19/1
f 9/20/1 5/18/1 10/21/1
f 9/20/1 8/22/1 7/23/1
f 7/23/48 6/24/48 5/18/48
f 3/25/49 24/26/49 4/27/49
f 30/28/1 29/29/1 1/30/1
f 1/30/50 43/31/50 42/32/50
f 40/33/1 1/30/1 41/34/1
f 38/35/1 30/28/1 39/36/1
f 36/37/51 30/28/51 37/38/51
f 34/39/1 30/28/1 35/40/1
f 34/39/1 33/41/1 32/42/1
f 30/28/52 34/39/52 31/43/52
f 28/44/1 3/25/1 29/29/1
f 28/44/53 27/4/53 26/5/53
f 24/26/1 28/44/1 25/45/1
f 66/6/54 57/5/54 65/13/54
f 22/3/1 21/10/1 19/12/1
f 40/33/55 30/28/55 1/30/55
f 5/18/56 11/17/56 10/21/56
f 7/23/1 5/18/1 9/20/1
f 28/44/57 26/5/57 25/45/57
f 14/2/58 23/16/58 22/3/58
f 29/29/59 2/46/59 1/30/59
f 34/39/60 32/42/60 31/43/60
f 30/28/61 40/33/61 39/36/61
f 30/28/62 38/35/62 37/38/62
f 62/10/54 63/11/54 64/12/54
f 22/3/63 17/6/63 16/14/63
f 22/3/64 19/12/64 17/6/64
f 5/18/1 23/16/1 13/15/1
f 23/16/1 5/18/1 4/27/1
f 30/28/65 36/37/65 35/40/65
f 1/30/66 42/32/66 41/34/66
f 24/26/1 23/16/1 4/27/1
f 3/25/59 2/46/59 29/29/59
f 5/18/67 13/15/67 12/19/67
f 24/26/59 3/25/59 28/44/59
f 49/39/68 53/28/68 54/29/68
f 68/1/54 69/2/54 70/15/54
f 72/17/54 46/38/54 71/19/54
f 74/20/54 76/23/54 73/21/54
f 74/20/54 75/22/54 76/23/54
f 78/18/54 73/21/54 77/24/54
f 80/25/54 73/21/54 79/27/54
f 82/30/54 73/21/54 81/46/54
f 65/13/69 58/45/69 59/26/69
f 86/33/54 44/36/54 85/34/54
f 73/21/70 76/23/70 77/24/70
f 47/37/54 67/14/54 46/38/54
f 35/47/71 36/7/71 78/9/71
f 49/39/72 50/41/72 51/42/72
f 51/42/73 52/43/73 53/28/73
f 55/44/74 49/39/74 54/29/74
f 56/4/54 66/6/54 48/40/54
f 64/12/54 65/13/54 59/26/54
f 59/26/54 60/16/54 61/3/54
f 61/3/54 62/10/54 64/12/54
f 47/37/54 66/6/54 67/14/54
f 73/21/2 82/30/2 83/31/2
f 73/21/75 78/18/75 79/27/75
f 73/21/76 80/25/76 81/46/76
f 83/31/54 84/32/54 44/36/54
f 44/36/2 45/35/2 72/17/2
f 44/36/77 72/17/77 73/21/77
f 49/39/78 51/42/78 53/28/78
f 22/47/79 23/7/79 65/9/79
f 61/3/54 64/12/54 59/26/54
f 44/36/54 84/32/54 85/34/54
f 48/40/54 49/39/54 55/44/54
f 73/21/2 83/31/2 44/36/2
f 45/35/54 46/38/54 72/17/54
f 56/4/80 48/40/80 55/44/80
f 71/19/54 46/38/54 67/14/54
f 57/5/54 58/45/54 65/13/54
f 68/1/54 71/19/54 67/14/54
f 70/15/54 71/19/54 68/1/54
f 66/6/54 47/37/54 48/40/54
f 15/47/5 16/7/5 58/9/5
f 30/47/81 31/7/81 73/9/81
f 17/47/7 18/7/7 60/9/7
f 5/47/82 6/7/82 48/9/82
f 37/47/83 38/7/83 80/9/83
f 24/47/84 25/7/84 67/9/84
f 36/47/11 37/7/11 79/9/11
f 31/47/85 32/7/85 74/9/85
f 43/47/86 1/7/86 86/9/86
f 21/47/14 22/7/14 64/9/14
f 2/47/87 3/7/87 45/9/87
f 1/47/16 2/7/16 44/9/16
f 34/47/88 35/7/88 77/9/88
f 11/47/89 12/7/89 54/9/89
f 41/47/90 42/7/90 84/9/90
f 13/47/20 14/7/20 56/9/20
f 20/47/21 21/7/21 63/9/21
f 9/47/22 10/7/22 52/9/22
f 6/47/91 7/7/91 49/9/91
f 25/47/24 26/7/24 68/9/24
f 7/47/92 8/7/92 50/9/92
f 12/47/93 13/7/93 55/9/93
f 42/47/27 43/7/27 85/9/27
f 28/47/94 29/7/94 71/9/94
f 19/47/29 20/7/29 62/9/29
f 18/47/95 19/7/95 61/9/95
f 27/47/96 28/7/96 70/9/96
f 29/47/97 30/7/97 72/9/97
f 23/47/98 24/7/98 66/9/98
f 8/47/99 9/7/99 51/9/99
f 10/47/100 11/7/100 53/9/100
f 38/47/101 39/7/101 81/9/101
f 26/47/37 27/7/37 69/9/37
f 40/47/102 41/7/102 83/9/102
f 33/47/103 34/7/103 76/9/103
f 16/47/104 17/7/104 59/9/104
f 14/47/41 15/7/41 57/9/41
f 32/47/42 33/7/42 75/9/42
f 39/47/105 40/7/105 82/9/105
f 4/47/44 5/7/44 47/9/44
f 3/47/106 4/7/106 46/9/106
